<svg width="179" height="218" viewBox="0 0 179 218" fill="none" xmlns="http://www.w3.org/2000/svg"><g filter="url(#filter0_d_1121_44130)"><rect x="5" width="169" height="209" rx="12.9126" fill="#793AF5"/><mask id="a" style="mask-type:alpha" maskUnits="userSpaceOnUse" x="5" y="0" width="169" height="209"><rect x="5" width="169" height="209" rx="12.9126" fill="#793AF5"/></mask><g mask="url(#a)"><path d="M111.55 166.706c-1.592 1.114-2.923 2.099-4.311 3.004-7.069 4.608-12.6109 10.534-17.1387 17.303-.9563 1.426-1.6964 3.053-2.1537 4.681-.9854 3.522-1.738 7.101-2.5488 10.661-.1122.503-.0166 1.044-.0166 1.752 1.2848-.901 2.4365-1.705 3.584-2.509.0915.05.183.104.2744.154-.3575.542-.6361 1.148-1.0852 1.608-1.1267 1.16-2.4281 2.177-3.4634 3.395-.7609.9-1.3014 1.99-1.7754 3.061-.2442.552-.5258.948-1.0068 1.094-.3214.098-.732.084-1.2799-.069.9521-1.609 1.8128-3.213 2.8397-4.717.4699-.688.5821-1.287.6237-2.091.1372-2.648-.7027-5.354.4781-7.948.079-.17.0458-.382.0458-.398-2.0831-.116-4.1121-.178-6.1244-.367-.8399-.077-1.7338-.294-2.4656-.68-3.1848-1.682-6.5942-1.844-10.12-1.539-2.9354.255-5.8874.352-8.8186.653-1.2307.128-2.4822.464-3.6131.936-2.2909.955-4.7607.839-7.1389 1.252-2.5903.449-5.1598 1.048-7.7709 1.346-3.0227.344-5.8208 1.306-8.6481 2.234-.3701.12-.7942.089-1.1933.127-.0541-.112-.1123-.22-.1663-.332.37-.24.7068-.58 1.1184-.7 3.0477-.889 6.1078-1.739 9.1637-2.594.3618-.1.7401-.154 1.3513-.282-5.297-1.418-10.3029-2.833-15.3629-4.07-1.6333-.401-3.3935-.439-5.1063-.477l-.1201-.003c-2.3283-.054-4.6691-.023-6.9933.128-1.081.07-2.1537.464-3.2015.792-1.29307.406.30927-.031-.50149-1.009 1.47189-.313-.25939 1.04.98795-.367-1.30139-1.415-2.28626-.427-.52753-2.318-1.75458 1.442-2.45199 2.995-2.70977 5.5-.26194 2.539-.17463 5.11-.23284 7.669-.00416.228.12473.464.1081.692-.15383 1.975-.08315 3.935.41578 5.872.07068.282.00831.591.00831.889-1.8211.112-1.96662.031-1.95415-1.623.02495-3.947.06653-7.898.158-11.845.07068-3.023 1.53006-5.516 3.59647-7.758.9355-1.017.68859-1.848 1.52017-2.938.5696-.746.9582-.979 1.399-1.81.8066-1.523 1.3684-3.106 3.5221-3.137.3708-.738.9186-.894.9269-1.617.0208-1.427 1.6629-3.228 3.1514-2.996 1.2977-1.292.6715-1.044 1.2744-1.755 1.6215-1.913 1.5259-3.197 3.1973-5.079 1.2973-1.462 2.4115-3.058 3.6256-4.581 1.9874-2.494 3.9541-5.002 6.0038-7.449.7567-.901 1.3804-1.759 1.7421-2.911 1.1393-3.599 3.4718-6.471 6.6691-8.771 1.0062-.723 2.0581-1.551 2.6693-2.552 2.3034-3.78 5.4176-6.881 9.1762-9.343 3.4426-2.258 5.3261-5.257 6.1244-8.972.7442-3.476 1.5092-6.951 2.0997-10.449.1621-.967.0332-2.161-.4532-3.004-3.2722-5.667-4.1329-11.763-4.0372-18.0679.0498-3.2124.0831-6.4287-.0167-9.6372-.0707-2.3348.657-4.4223 1.8502-6.4015.7568-1.2564.8648-2.4044.4283-3.8811-.42-1.4303-.2245-3.1235.1081-4.6234.711-3.2123 2.3076-6.1193 4.3449-8.775 1.7421-2.273 3.1723-4.6582 4.2908-7.2636 2.9312-6.8307 8.619-10.8857 15.8743-13.3598 6.7439-2.3 13.4338-1.7434 20.1279.0773 4.611 1.2564 9.06 2.9032 12.906 5.64 1.347.9549 2.952 2.0991 3.463 3.4714 1.276 3.4134 3.725 6.2779 4.91 9.6642.861 2.4586 1.343 5.0602 1.713 7.6308.932 6.4634 1.767 12.9423 2.516 19.4288.457 3.9546.678 7.9092 1.871 11.7826.898 2.907 1.322 5.9414 1.908 8.9254.374 1.906.566 3.847.998 5.737.807 3.545 2.657 6.695 4.599 9.792 1.97 3.146 3.887 6.336 6.024 9.382.749 1.067 1.95 2.025 3.177 2.601 8.61 4.028 11.683 11.261 15.654 19.217 3.991 7.994 5.195 16.598 7.199 25.164 1.651 7.055 3.399 14.488 4.8 21.586.786 3.974 1.276 6.134 1.846 10.147.091.642-.581 2.027-1.292 2.158-1.684.314-4.593.58-6.277.596-8.889.093-12.559 0-21.452 0-4.952-1.106-9.995-.058-15.172-.596.495-.858.882-1.716 1.439-2.466 2.074-2.783 3.908-5.675 5.405-8.775 1.472-3.046 3.268-5.961 4.765-8.999 3.022-6.139 6.078-12.27 8.843-18.509 1.252-2.83 1.934-6 1.248-9.046-.986-4.395-2.749-8.578-5.564-12.296-.266-.356-.719-.615-1.135-.839-.049-.027-.099-.054-.149-.08-1.281-.685-2.563-1.371-3.884-1.984-1.821-.847-3.775-1.052-5.808-1.222-3.019-.255-5.875.29-8.727.939-1.593.364-3.16.916-4.653 1.562-4.86 2.103-9.662 4.361-13.766 7.608-1.647 1.302-2.815 3.142-4.145 4.774-.537.661-1.007 1.388-1.372 2.141-.391.804-.645 1.67-.924 2.521-.291.889-.544 1.786-.844 2.771 2.054-1.14 3.959-2.787 7.056-2.238zm-39.8936-.533c.025-.391.0499-.785.0748-1.187-1.9707-.015-3.3719-.966-4.6774-2.08-.1414.163-.2537.294-.3659.422-.1622-.383-.3243-.766-.4823-1.145.1996-.104.5738-.204.5738-.309.0083-1.19.8814-1.913 1.5882-2.752.6569-.781 1.1891-1.655 1.8461-2.59-1.2183-.557-2.1704-.99-3.2556-1.485-.3201.878-.8398 1.632-.8066 2.362.0624 1.349-.0956 2.521-1.2057 3.476-.1663.146-.2453.382-.3618.576-.4864-.151-.7858.328-1.4385.177-1.7089-.402-3.2722-.854-4.3948-2.207-.1039-.124-.4615-.07-.7027-.097.0458-.958-.3284-1.229-2.108-1.492-.4074.963-.8149 1.933-1.2473 2.957.9397.325 1.7296.596 2.5446.874.1746-.375.3118-.669.449-.966-.0249.344-.0457.692-.079 1.128 2.7233-.274 4.058 1.442 5.5548 3.078.4366-.777.8274-1.469 1.2141-2.154 1.1641.294 1.3346.569 1.0602 1.52-.1289.444-.1746.904-.2578 1.36.0998.031.2037.062.3035.093.183-.216.3659-.433.5489-.649-.0333.232-.0707.464-.1206.8 1.9791-.248 3.559.255 4.8396 1.546.0707.074.3493-.031.5281-.054.1205 1.152 1.2847.738 1.9791 1.272.4282-1.071.8066-2.014 1.2099-3.019-.9023-.286-1.6548-.526-2.4115-.766-.1705.557-.2869.932-.3992 1.311zm-12.3693 11.029c.4282.108.8564.22 1.0477.27.7359-2.37 1.3887-4.689 2.1787-6.966.7941-2.296 1.7296-4.55 2.5986-6.823-.3908-.054-.6653.016-.7692.182-.3035.491-.5571 1.005-.7941 1.527-1.7463 3.831-3.1807 7.812-6.3157 10.998.7318.297 1.4095.572 2.0914.85-.7734-.174-1.5467-.352-2.3616-.533-.2786.877-.5406 1.693-.8067 2.532.8233.29 1.5218.541 2.2203.781.1663.058.3534.15.5156.123.3409-.054.8274-.081.977-.29.9106-1.275.7859-1.747-.5363-2.559-.0291-.019-.0333-.062-.0457-.092zm34.9294-67.661c-1.4594 1.473-3.4302 1.948-5.3012 1.407-2.1412-.615-4.0455.487-6.087.116.2329.278.4616.506.7443.611 2.2577.838 4.4821 1.84 7.0349 1.503 1.9126-.255 3.846-.406 5.7336-.781 2.952-.583 4.4989-2.833 6.2239-4.839 2.487-2.888 4.985-5.768 7.463-8.6633.167-.1933.3-.4562.329-.6997.328-2.8761.574-5.7598.969-8.6243.386-2.8103.154-5.5472-.711-8.23-1.314 1.8749-2.749 3.711-3.938 5.6748-1.388 2.2885-2.673 4.6465-3.8 7.0548-1.027 2.1996-1.738 4.5267-2.678 6.7687-.777 1.856-1.3591 3.819-2.9099 5.312.0831-.221.1496-.445.2453-.658 1.1475-2.551 2.3366-5.091 3.4426-7.6575.977-2.2614 1.659-4.6543 2.848-6.8074 1.493-2.6944 3.426-5.1723 5.064-7.801.686-1.0978 1.46-2.3116 1.572-3.5254.212-2.2112-.092-4.461-.083-6.6954.012-2.4933-.233-4.9364-.948-7.3486-.237-.7963-.237-1.6506-.412-2.4663-.116-.5412-.237-1.1288-.545-1.5811-.594-.862-1.305-1.6583-2.012-2.4469-.407-.4523-.831-.978-1.376-1.2139-1.293-.5605-1.871-1.3529-1.863-2.7291.009-2.0759-.307-2.3194-2.478-2.9031-.341-.0928-.678-.1933-1.0185-.2938.0125-.0503.0208-.1005.0333-.1469.6072.1276 1.2182.2551 1.8252.3827.054-.0812.112-.1624.166-.2436-1.002-.6494-1.9372-1.438-3.0265-1.9173-3.2971-1.4458-6.8354-1.9599-10.4568-2.0256-1.9957-.0348-3.0102-1.1597-2.5487-2.9457.5363-2.072 1.1309-4.1324 1.688-6.1618-1.5924.7074-2.5778 1.9908-3.1557 3.5525-.316.8466-.3285 1.813-.7526 2.5977-.686 1.2873-1.372 2.5862-3.2555 2.8838-1.422.2242-2.8564.719-4.1287 1.3569-1.9375.9703-3.2846 2.5474-4.1162 4.4494-.4157.9509-.7317 1.9444-1.0103 2.9379-.4948 1.7666-.923 3.5525-1.3928 5.323-.1456.545-.4075 1.0708-.5114 1.6197-.262 1.4419-.7193 2.7833-1.9168 3.8154-.1164.1005-.1912.2706-.2162.4175-.4241 2.1841-.7026 4.3798-.079 6.5678 1.2515 4.3875 1.738 8.8794 1.9708 13.3868.1372 2.7059.7027 5.2766 1.6548 7.828 1.1226 2.9958 3.3137 5.3813 5.0101 8.0483.8232 1.295 1.6382 2.613 2.6402 3.781 1.8835 2.195 4.1869 3.711 7.4424 2.995.4116-.088.9771-.436 1.0685-.765.2246-.789.2079-1.635.3119-2.679.1205.657.291 1.152.2827 1.643-.0083.514-.1913 1.024-.3035 1.55 1.9375.553 3.8002.735 5.6504-.004.5571-.197 1.081-.479 1.6174-.73zM73.9473 148.02c1.1808-1.4 2.3284-2.722 3.4261-4.083.9313-1.152 1.7296-2.4 2.7191-3.502 1.3887-1.546 2.8897-3.003 4.3615-4.488 1.3762-1.392 2.7067-2.837 4.1827-4.132 1.738-1.523 3.6215-2.9 5.4301-4.361 1.9832-1.604 3.9249-3.255 5.9331-4.832 1.5091-1.187 3.1391-2.242 4.6361-3.44 2.025-1.624 4.008-3.29 5.933-5.014.798-.715 1.439-1.469 1.189-2.779-.461-2.397-.536-4.852-.827-7.28-.162-1.36-.437-2.713-.699-4.3097-2.249 2.6557-4.365 5.1447-6.465 7.6387-1.817 2.153-3.422 4.592-6.4696 5.377-1.9875.51-4.0913.638-6.1286.993-1.9666.344-3.7794-.096-5.5464-.827-1.0727-.448-2.1205-.943-3.1558-1.407.711 1.628 1.4386 3.286 2.32 5.3 1.817.429 4.0913.966 6.3698 1.5-2.3326.209-4.4863-.352-6.6067-1.106-.262-.093-.6362-.17-.8607-.069-1.7047.765-3.3927 1.565-5.0683 2.381-.2453.12-.474.352-.5946.584-.686 1.306-1.3429 2.628-1.9999 3.946-.5696 1.141-1.1267 2.289-1.688 3.433-.1705-.062-.3451-.127-.5156-.189.4283-2.281 2.1329-4.183 2.6735-6.746-1.713 1.728-3.4718 3.039-4.0123 5.199-.6112 2.463-2.266 4.195-4.5195 5.517-.6278.367-1.2847.785-1.7338 1.318-1.4843 1.759-2.8979 3.568-4.2866 5.396-.2038.271-.2578.789-.1289 1.102.8731 2.13 2.1953 3.99 4.0829 5.462.6237.487 1.3762.828 2.1537 1.288.1456-1.744.0873-3.286.4407-4.74.632-2.597 1.422-5.168 2.3118-7.7.6403-1.817 1.5425-3.557 2.3616-5.315.0831-.182.3783-.275.5738-.41.0582.236.2328.506.1621.7-.9438 2.52-2.0248 5.006-2.8689 7.553-1.0228 3.081-1.9749 6.201-1.8959 9.475.0083.336.3077.831.6154.962 1.3637.588 2.7773 1.071 4.1951 1.605zm1.3971.359c.9895.329 1.8418.684 2.7399.897 6.5485 1.562 13.2092 2.304 19.9698 2.261.4199-.004.9105-.321 1.2515-.61 3.9874-3.387 7.9534-6.792 12.6814-9.305.224-.12.519-.356.532-.549.058-.82.025-1.643.017-2.466-.009-.766-.387-1.806.012-2.246 1.397-1.547.516-3.352.973-4.964.358-1.26.345-2.485.154-3.765-.15-.982-.366-2.126.021-2.973.648-1.422.253-2.663-.071-3.985-.071-.294-.104-.595-.158-.889-.349-1.848-.703-3.696-1.089-5.706-2 1.72-3.742 3.255-5.53 4.743-1.293 1.075-2.67 2.064-3.975 3.131-1.16.951-2.224 2.011-3.4136 2.931-3.2306 2.512-6.615 4.863-9.725 7.495-2.4905 2.107-4.7856 4.442-6.9601 6.838-2.4365 2.683-4.6401 5.552-6.9352 8.343-.1829.224-.2993.491-.4947.819zm-25.167 45.905c.0623-.112.1289-.224.1912-.34-1.2223-1.257-2.4198-2.532-3.6671-3.769-.0007-.001-.0013-.002-.002-.002-3.3214-3.293-6.6388-6.582-10.6627-9.172-1.1808-.761-2.3076-1.596-3.426-2.443-2.7192-2.06-5.6005-3.896-8.9143-4.998-.9313-.309-1.2182.87-2.1121 1.218-1.0852.421-1.9749 1.604-1.0353 2.377.5655.464 1.1392.92 1.6756 1.411 1.5799 1.461 3.0352 3.054 4.7315 4.384 2.3991 1.875 3.4967 4.441 4.7441 6.95.0498.105-.0042.252-.025.654-.5072-.805-.844-1.415-1.2556-1.98-1.1143-1.542-2.0748-3.228-3.4302-4.569-2.4822-2.455-3.8584-3.406-6.5235-5.694-.6611-.569-1.5218-.974-2.3492-1.334-.3712-.162-.3377-.181-.2127-.098.1732.116.5218.428.2127.833-.7983 1.047-.9022 2.872-.0457 3.881.4146.489.066.637-.2975.761-.391.134-.7993.243-.2929.723.3625.343.7285.682 1.0968 1.019.6244.57 1.2556 1.133 1.8885 1.695.3575.317.8066.553 1.1184.901.6694.746 1.2806 1.538 1.9126 2.311-.0915.062-.183.124-.2744.186-.31-.304-.62-.605-1.0606-1.033-.1091-.106-.2261-.22-.3531-.343-.2786.943-.4948 1.67-.7317 2.466.8357.062 1.6506.012 2.399.197 4.1287 1.025 8.2781 2.003 12.3486 3.201 3.8625 1.136 7.7168 1.836 11.754 1.106.8648-.151 1.7296-.329 2.5986-.499zm3.9623-1.481c-1.2182-1.53-2.3158-3.05-3.5756-4.441-.7942-.878-1.7754-1.643-2.7774-2.32-2.424-1.635-4.1952-3.757-4.8605-6.421-.7276-2.914-1.2972-5.91-1.4427-8.891-.2329-4.828-1.2099-9.641-.6154-14.504.025-.193-.2494-.607-.3617-.599-1.5841.089-3.1641.232-4.744.367-.0291.004-.0541.043-.079.066-2.6693 2.316-5.1515 4.751-6.5651 7.983-.9355 2.137-2.4531 3.885-4.4571 5.3-1.0312.726-1.8669 1.685-2.7899 2.543.0457.085.0873.166.133.251 2.5862.155 4.7399 1.253 6.7398 2.641 3.1682 2.199 6.3406 4.395 9.4547 6.66 1.8378 1.338 3.6672 2.706 5.3178 4.229 2.3949 2.208 4.6152 4.577 6.9269 6.866 1.1018 1.086 1.9458 1.175 3.6962.27zm-37.2203-2.737c-.0956-2.334.4033-2.818 2.9271-2.945.2952-.016.5779-.267 1.002-.472-.3617-.29-.5239-.421-.6902-.553-1.215-.939-1.3832-1.383-1.5808-2-.0058-.019-.0117-.037-.0177-.056-.1321-.414-.291-.912-.7862-1.686-.057-.089-.1184-.182-.1848-.278-.1164-.166-.4782-.267-.7235-.263-1.4469.027-4.0746-.371-4.3823.793-.291 1.105.3535 2.261 1.5717 2.992.3599.217.3159.443.2112.674-.083.183-.204.37-.1923.557.008.128.0778.256.2638.385-.0665.081-.1289.158-.1954.239-.3247-.205-.2172-.419-.0684-.624.1445-.199.3279-.39.1923-.557-.0377-.046-.1-.091-.1946-.133-.4573-.205-1.1434-.267-1.6049-.101-.9105.329-3.34283 1.543-2.99774 2.919.17047.68 1.29304 1.651 2.01654 1.604 1.8169-.127 3.6214-.324 5.4342-.495zm55.6476-38.502c2.1412.561 4.1078 1.071 6.0703 1.589 4.9103 1.299 9.9329 1.825 15.0262 1.875 1.1683.012 2.794-1.117 3.2721-2.258-.661 0-1.3096-.038-1.9541.008-3.8709.271-7.6877-.178-11.4339-.989-2.7191-.588-5.376-1.45-8.0411-2.242-.6652-.198-1.1268-.159-1.5467.371-.4074.514-.844 1.001-1.3928 1.646zm-4.4572-5.412c-3.9249-.997-5.3094-4.062-6.8229-7.19-.1954.329-.4532.58-.3949.696.7109 1.427 1.4676 2.834 2.2119 4.245-.0416.027-.079.054-.1206.085-.8274-1.226-1.6548-2.455-2.478-3.677-.6861.654-.6278 1.307-.1996 2.088 1.5342 2.799 3.7087 5.068 6.3947 6.939.3201.22.6777.394 1.2057.696.079-1.423.1372-2.598.2037-3.882zm29.7988 6.085c-6.1785-.638-12.3112-1.268-18.3524-1.894-.0582-.074-.0458-.031-.0167-.023 5.7211 1.94 11.6459 2.497 17.683 2.238.262-.012.5156-.24.6861-.321zm-24.8178-3.004c-1.4178-.564-2.7607-1.101-4.1369-1.646v2.752c2.0165 1.353 2.9686-.135 4.1369-1.106zM18.886 190.306c1.027-.031 1.7213-.56 1.6797-1.276-.0415-.78-.6943-1.213-1.9125-1.144-.8981.05-1.0228.769-1.0436 1.388-.025.746.395 1.191 1.2764 1.032zm54.8618-41.958c-1.6216-.634-3.0893-1.206-4.5611-1.782-.2245.789-.2453.839 2.2743 1.713.6569.232 1.501 1.012 2.2868.069zm-3.9125 2.799c-.8066.05-1.5134.576-1.8793 1.322-.4158.847-.6153 1.801-.079 2.563.6445-1.283 1.3014-2.582 1.9583-3.885zm1.3014 2.149c-.8399.159-1.738 1.481-1.7338 2.451 1.3638-.414 1.8336-1.055 1.7338-2.451zm-1.1891-.468c-.1414-.054-.2828-.108-.4283-.162-.3492.82-.6943 1.643-1.0436 2.463.1788.061.3576.123.5322.185.316-.831.6278-1.658.9397-2.486z" fill="#fff"/><path d="M80.6289 210.841c.9521-1.609 1.8128-3.213 2.8397-4.717.4699-.688.5821-1.287.6237-2.091.1372-2.648-.7027-5.354.4781-7.948.079-.17.0458-.382.0458-.398-2.0831-.116-4.1121-.178-6.1244-.367-.8399-.077-1.7338-.294-2.4656-.68-3.1848-1.682-6.5942-1.844-10.12-1.539-2.9354.255-5.8874.352-8.8186.653-1.2307.128-2.4822.464-3.6131.936-2.2909.955-4.7607.839-7.1389 1.252-2.5903.449-5.1598 1.048-7.7709 1.346-3.0227.344-5.8208 1.306-8.6481 2.234-.3701.12-.7942.089-1.1933.127-.0541-.112-.1123-.22-.1663-.332.37-.24.7068-.58 1.1184-.7 3.0477-.889 6.1078-1.739 9.1637-2.594.3618-.1.7401-.154 1.3513-.282-5.297-1.418-10.3029-2.833-15.3629-4.07-1.6333-.401-3.3935-.439-5.1063-.477l-.1201-.003c-2.3283-.054-4.6691-.023-6.9933.128-1.081.07-2.1537.464-3.2015.792-1.29307.406.30927-.031-.50149-1.009 1.47189-.313-.25939 1.04.98795-.367-1.30139-1.415-2.28626-.427-.52753-2.318-1.75458 1.442-2.45199 2.995-2.70977 5.5-.26194 2.539-.17463 5.11-.23284 7.669-.00416.228.12473.464.1081.692-.15383 1.975-.08315 3.935.41578 5.872.07068.282.00831.591.00831.889l73.67409 1.802z" fill="#fff"/><path d="M111.55 166.706c-1.592 1.114-2.923 2.099-4.311 3.004-7.069 4.608-12.6109 10.534-17.1387 17.303-.9563 1.426-1.6964 3.053-2.1537 4.681-.9854 3.522-1.738 7.101-2.5488 10.661-.1122.503-.0166 1.044-.0166 1.752 1.2848-.901 2.4365-1.705 3.584-2.509.0915.05.183.104.2744.154-.3575.542-.6361 1.148-1.0852 1.608-1.1267 1.16-2.4281 2.177-3.4634 3.395-.7609.9-1.3014 1.99-1.7754 3.061-.2442.552-.5258.948-1.0068 1.094l51.8562-.066c.495-.858.882-1.716 1.439-2.466 2.074-2.783 3.908-5.675 5.405-8.775 1.472-3.046 3.268-5.961 4.765-8.999 3.022-6.139 6.078-12.27 8.843-18.509 1.252-2.83 1.934-6 1.248-9.046-.986-4.395-2.749-8.578-5.564-12.296-.266-.356-.719-.615-1.135-.839l-.149-.08c-1.281-.685-2.563-1.371-3.884-1.984-1.821-.847-3.775-1.052-5.808-1.222-3.019-.255-5.875.29-8.727.939-1.593.364-3.16.916-4.653 1.562-4.86 2.103-9.662 4.361-13.766 7.608-1.647 1.302-2.815 3.142-4.145 4.774-.537.661-1.007 1.388-1.372 2.141-.391.804-.645 1.67-.924 2.521-.291.889-.544 1.786-.844 2.771 2.054-1.14 3.959-2.787 7.056-2.238zM17.4807 183.077c-.5064-.48-.0981-.589.2929-.723-.057-.089-.1184-.182-.1848-.278-.1164-.166-.4782-.267-.7235-.263-1.4469.027-4.0746-.371-4.3823.793-.291 1.105.3535 2.261 1.5717 2.992.3599.217.3159.443.2112.674.1356.167-.0478.358-.1923.557.008.128.0778.256.2638.385-.0665.081-.1289.158-.1954.239-.3247-.205-.2172-.419-.0684-.624-.0117-.187.1093-.374.1923-.557-.0377-.046-.1-.091-.1946-.133-.4573-.205-1.1434-.267-1.6049-.101-.9105.329-3.34283 1.543-2.99774 2.919.17047.68 1.29304 1.651 2.01654 1.604 1.8169-.127 3.6214-.324 5.4342-.495-.0956-2.334.4033-2.818 2.9271-2.945.2952-.016.5779-.267 1.002-.472-.3617-.29-.5239-.421-.6902-.553-1.215-.939-1.3832-1.383-1.5808-2-.3683-.337-.7343-.676-1.0968-1.019z" fill="#fff"/><path d="M50.1774 194.284c.0623-.112.1289-.224.1912-.34-1.2223-1.257-2.4198-2.532-3.6671-3.769l-.002-.002c-3.3214-3.293-6.6388-6.582-10.6627-9.172-1.1808-.761-2.3076-1.596-3.426-2.443-2.7192-2.06-5.6005-3.896-8.9143-4.998-.9313-.309-1.2182.87-2.1121 1.218-1.0852.421-1.9749 1.604-1.0353 2.377.5655.464 1.1392.92 1.6756 1.411 1.5799 1.461 3.0352 3.054 4.7315 4.384 2.3991 1.875 3.4967 4.441 4.7441 6.95.0498.105-.0042.252-.025.654-.5072-.805-.844-1.415-1.2556-1.98-1.1143-1.542-2.0748-3.228-3.4302-4.569-2.4822-2.455-3.8584-3.406-6.5235-5.694-.6611-.569-1.5218-.974-2.3492-1.334-.0963-.042-.1654-.074-.2127-.098.1732.116.5218.428.2127.833-.7983 1.047-.9022 2.872-.0457 3.881.4146.489.066.637-.2975.761.4952.774.6541 1.272.7862 1.686l.0177.056c.6244.57 1.2556 1.133 1.8885 1.695.3575.317.8066.553 1.1184.901.6694.746 1.2806 1.538 1.9126 2.311l-.2744.186c-.31-.304-.62-.605-1.0606-1.033l-.3531-.343c-.2786.943-.4948 1.67-.7317 2.466.8357.062 1.6506.012 2.399.197 4.1287 1.025 8.2781 2.003 12.3486 3.201 3.8625 1.136 7.7168 1.836 11.754 1.106.8648-.151 1.7296-.329 2.5986-.499zM123.57 174.403c-1.654-4.299-.469-7.573 3.206-10.074-1.251-2.822-3.01-5.385-4.079-8.222.142-.089.283-.174.424-.263.346.294.753.541 1.019.885 1.522 1.944 3.027 3.9 4.503 5.876.382.51.711.754 1.468.653 5.126-.665 9.471 1.871 11.201 6.421.104.271.482.588.773.63 2.765.414 5.542.769 8.316 1.144.141.02.316-.004.42.066.232.159.432.363.644.553-.225.124-.441.328-.678.352-2.104.232-4.216.429-6.324.637-.141.016-.287.031-.428.031-1.626.031-2.836.387-3.372 2.146-.432 1.434-1.43 2.041-4.037 3.703 1.102.479 2.112.939 3.139 1.353.915.367 1.222.986 1.014 1.856-.336 1.399-.69 2.794-1.031 4.194-.478 1.96-1.65 2.621-3.737 1.933-3.352-1.106-6.674-2.281-9.996-3.464-3.555-1.264-7.089-2.571-10.631-3.858-1.938-.703-2.412-1.376-1.892-3.197.495-1.735 1.16-3.432 1.854-5.106.125-.298.819-.646 1.144-.572 1.139.259 2.233.688 3.343 1.059 1.172.394 2.336.792 3.737 1.264zm3.148-12.923c-.511-.58-1.027-1.16-1.538-1.736.207.762.519 1.465.877 2.15 1.501 2.887 2.993 5.779 4.536 8.647.437.812.233 1.183-.661 1.461-.857.267-1.663.681-2.491 1.029.034.096.067.189.1.286 2.021-.263 4.042-.53 6.22-.812-.349-.545-.611-.936-.856-1.334-.686-1.125-1.364-2.254-2.046-3.378.761 1.043 1.634 2.033 2.249 3.146.607 1.09 1.293 1.79 2.703 1.535.037-.008.087.042.183.089-3.023.344-5.954.68-8.885 1.016 1.409.364 2.785.561 4.17.704.665.07 1.36.143 2.012.046 2.62-.386 5.223-.889 7.846-1.252 2.499-.344 5.014-.564 7.725-.862-.985-.302-1.734-.634-2.515-.75-3.726-.545-7.455-1.055-11.193-1.512-.873-.108-1.422-.456-1.929-1.082-2.029-2.513-4.091-5.002-6.145-7.495-.171-.209-.366-.402-.549-.604-.033.028-.067.051-.096.078.092.205.187.417.283.63zm-10.702 11.384c-.532 1.558-1.073 3.108-1.588 4.662-.632 1.902-.474 2.238 1.422 3.116.544.251 1.085.526 1.654.727 3.963 1.399 7.929 2.787 11.9 4.163 2.353.816 4.715 1.624 7.089 2.393 1.176.383 1.717.1 2.004-.939.287-1.036.557-2.076.823-3.116.707-2.76.694-2.737-2.1-3.885-6.843-2.811-13.824-5.273-21.204-7.121zm11.296-7.484c-3.746 1.717-4.382 6.325-2.32 9.127.146.201.437.348.691.441 2.839 1.036 5.687 2.06 8.54 3.077.262.093.561.174.831.151 2.038-.182 4.632-2.528 4.985-4.612-2.482.387-4.914 1.021-7.359 1.075-2.416.054-4.844-.476-7.268-.746-.025-.14-.05-.279-.074-.422 1.671-.85 3.342-1.701 5.026-2.559-1.018-1.84-2.016-3.653-3.052-5.532zm3.036-.924c.956 1.237 1.954 2.409 2.798 3.669.702 1.055 1.547 1.577 2.923 1.585 1.334.004 2.669.255 4.054.406-.903-3.792-6.004-6.738-9.775-5.66zM94.2166 109.541c-.5363.251-1.0602.533-1.6132.749-1.8544.739-3.7171.557-5.6504.004.1081-.525.291-1.036.3035-1.55.0083-.491-.1622-.982-.2827-1.643-.104 1.044-.0915 1.891-.3119 2.679-.0914.329-.6569.673-1.0685.766-3.2597.715-5.559-.801-7.4424-2.996-1.002-1.172-1.817-2.49-2.6402-3.781-1.6964-2.667-3.8875-5.0523-5.0101-8.0482-.9563-2.5514-1.5176-5.122-1.6548-7.828-.2287-4.5074-.7193-8.9993-1.9708-13.3868-.6237-2.188-.3409-4.3837.079-6.5678.0291-.1469.1039-.3208.2162-.4175 1.1974-1.0321 1.6548-2.3735 1.9167-3.8154.0998-.5528.3659-1.0746.5114-1.6197.474-1.7743.8981-3.5564 1.3929-5.323.2786-.9935.5946-1.9908 1.0103-2.9379.8316-1.9019 2.1787-3.4791 4.1162-4.4494 1.2765-.6379 2.7067-1.1327 4.1287-1.3569 1.8835-.2976 2.5695-1.5965 3.2555-2.8837.42-.7886.4366-1.7512.7526-2.5978.5779-1.5617 1.5633-2.8451 3.1557-3.5525-.5571 2.0295-1.1517 4.0899-1.688 6.1618-.4615 1.7821.553 2.907 2.5487 2.9457 3.6214.0618 7.1597.5798 10.4568 2.0256 1.0893.4793 2.0202 1.2679 3.0272 1.9174-.054.0811-.113.1623-.167.2435-.607-.1276-1.218-.2551-1.8249-.3827-.0125.0503-.0208.1005-.0333.1469.3412.0966.6782.201 1.0182.2938 2.175.5798 2.487.8272 2.478 2.9031-.004 1.3762.57 2.1686 1.863 2.7292.545.2358.973.7615 1.376 1.2138.707.7886 1.418 1.5849 2.013 2.4469.312.4523.432 1.0399.544 1.5811.175.8157.175 1.67.412 2.4663.715 2.4083.96 4.8553.948 7.3486-.012 2.2344.291 4.4842.083 6.6954-.116 1.2138-.885 2.4237-1.571 3.5255-1.639 2.6286-3.572 5.1065-5.065 7.8009-1.193 2.1532-1.875 4.546-2.848 6.8074-1.1098 2.5664-2.2948 5.1064-3.4423 7.6584-.0957.212-.1664.436-.2454.657-1.0311 1.113-2.0539 2.242-3.0767 3.371zm-7.4299-16.677c.0124-.5412.1081-1.0978.0166-1.6197-.2786-1.5578-.2703-1.6004 1.4012-1.7666 1.3803-.1353 2.5528-.6803 3.4966-1.6197.9148-.9084 1.1226-2.4856.499-3.4598-.711-1.121-1.3305-1.2872-3.1682-.8543-.1955.0464-.3992.0657-.3576.058-.5364-1.0592-1.0602-1.9908-1.4843-2.9572-.2079-.4755-.3992-1.036-.3327-1.5231.2745-1.9174.6653-3.8193.9979-5.7289.0416-.2436.0042-.4987.0042-.75-.3534.1083-.5031.2281-.5239.3673-.3493 2.1454-.7401 4.2909-.9771 6.4479-.0624.5605.2453 1.2486.6029 1.7396.5322.7306.7983 1.4612.7442 2.3348-.0457.7113-.0083 1.4226-.0083 2.1339.316-.1431.4657-.3132.5488-.5064.3784-.9007 1.3264-1.4381 2.3866-1.1791.923.2242 1.3388.8544 1.3845 1.7898.0624 1.2177-.7775 1.7937-1.6672 2.3774-1.4511.951-4.2409 1.1752-5.3594.4021 1.3263-.8775 2.557-1.9097 4.5985-1.5656-.8191-.8273-1.5758-.7384-2.241-.4214-.8233.3904-1.5343.9935-2.3575 1.3916-.4573.2204-1.081.3789-1.5675.2822-1.555-.3131-3.0726-.804-4.6234-1.1287-.8025-.1663-1.1434-.5412-.7151-1.2216.2453-.3904.607-.7731 1.0144-1.0128 1.1351-.6726 1.5758-1.6158 1.7338-2.8297.1497-1.1519.5281-2.2807.8524-3.4056.5114-1.7705 1.214-3.5062 1.5425-5.3037.2536-1.3878.0499-2.8451.0499-4.1788-.1871 1.7396-.1829 3.5989-.632 5.3617-.5654 2.2305-1.6049 4.3566-2.2285 6.5755-.4324 1.5385-1.0104 2.8915-2.4157 3.8541-.1414.0966-.3035.2474-.3243.3904-.1039.661-.4075 1.4264-.158 1.9599.1871.3981 1.1101.7035 1.7047.7035 2.9437-.0154 3.821.5799 3.1599 3.4327-.1788.7732-.4033 1.6661.5488 2.246-.291.1392-.5696.3093-.8773.4059-1.0768.3363-2.1953.5798-3.2389.9896-.9854.3866-1.8918.9316-2.8356 1.411 1.7588.4445 2.5945 1.7279 3.5923 2.8644.8898 1.0124 1.9583 1.7084 3.505 1.6234 1.4303-.077 2.8731.097 4.3033.012 1.5176-.093 2.9437-.472 3.9083-1.7513.8274-1.0979 1.6839-2.1648 3.3054-2.3581.6029-.0696.6653-.4909.5115-1.0669-.2745-1.0283-1.1725-.6263-1.8378-.7963.1996-1.0592.395-2.0798.5863-3.1042l-.3618-.0696c-.2411 1.067-.4781 2.1339-.7317 3.2511-1.9999-.5876-3.9458-1.5347-6.2076-.8389.0915-.5528.1622-.9703.2329-1.3878zm4.1702-21.2302c.0582-.0387.1289-.0657.1746-.1121 2.4448-2.5088 7.7169-2.9418 10.2155-.3866.212.2165.599.2822.902.4214-2.212-2.4972-5.0845-2.9882-8.2943-2.4238 3.0393-1.3336 6.0703-1.581 9.1593-.2165 2.017.893 2.158.7809 1.988-1.5694 1.488.9664 2.835 1.8439 4.178 2.7214-.366-.5605-.823-1.1133-1.38-1.5463-1.701-1.3104-3.326-2.7987-5.638-3.1196-4.557-.6339-8.7938.116-12.5566 2.6944-.4158.2861-.7359.6997-1.1018 1.0515.632.2783 1.239.6919 1.9043.8002.5155.085 1.1059-.2011 1.6589-.3325.2495-.0618.4906-.1546.5281-.1662-.5572.6417-1.1975 1.3723-1.8378 2.1068-.3991.7577-1.1143 1.5076-1.1351 2.2769-.0499 1.8284 2.2328 4.5537 4.2202 5.3423-.7692-.7615-1.5841-1.3916-2.1537-2.1764-.6902-.9548-1.3804-1.9908-1.6715-3.0848-.158-.5953.499-1.38.79-2.0797.025-.0696.0333-.1353.0499-.201zM78.679 75.0665c-2.2951.9007-4.5153 1.2293-6.6316-.603 1.4427.0734 2.7607.3401 3.9873.143 1.1974-.1933 2.3075-.862 3.7045-1.4187-.9022-.4909-1.6464-1.2061-2.4614-1.2834-2.3075-.2203-4.6234-.1121-6.378 1.9019.1164-1.5115.6528-2.1957 2.1662-2.7524 2.4157-.8852 4.6567-.7035 6.5568 1.1868.0624-.1082.1248-.2126.1913-.3208-.9314-.5722-1.8627-1.1443-2.661-1.6352.3035-.0967.7152-.232 1.1309-.3673-.2578-.4097-.5031-.8272-.7858-1.2254-.0915-.1314-.2703-.2164-.4282-.3015-1.792-.9471-3.7379-1.4148-5.7835-1.3607-2.004.0502-3.6755 1.2099-3.8002 2.6634-.0374.4523.4158 1.1327.8565 1.3878.5488.317 1.1434.0464 1.4344-.6301.1248-.2861.4699-.5567.7858-.6997 1.5551-.6958 3.0103.0735 4.3283.259-.9314.3673-2.0831.6417-2.9811 1.2409-.6653.4445-1.0894 1.2795-1.4303 2.0179-.0915.201.5322.661.7733 1.0321 1.2973 2.0063 4.8023 2.4122 7.4258.7654zm23.105-2.5127c-3.8711-2.4701-9.2264-2.0836-10.2284.5412 1.0353.2474 2.0664.5837 3.1267.7268 1.4053.1894 2.8356.3324 4.2492.2938 1.1645-.0348 2.1415-.6379 2.8525-1.5618zm-23.7952-13.928c0 .0232-.0041.0426-.0041.0657 1.7837.0774 3.5673.1624 5.351.232 1.2016.0464 2.2411-.2397 3.1059-1.1056.3409-.3402.9064-.5373 1.4136-.6688 2.6984-.7035 5.4508-.7538 8.2282-.5412 1.0727.0812 2.1579.0116 3.2389.0116.0167-.1159.0333-.228.0541-.344-.2994-.1198-.607-.3479-.9022-.3402-3.081.1083-6.1619.1856-9.2303.4368-.9854.0812-2.1787.4369-2.8314 1.067-1.0977 1.063-2.3118 1.2022-3.7088 1.1829-1.5716-.0155-3.1432.0038-4.7149.0038zm-2.5154 4.1943c-.0083.0889-.0125.1739-.0208.2628.5987-.027 1.2016-.0734 1.8003-.0773 1.5758-.0116 3.1932-.2048 4.7191.058 1.5009.2629 2.8771.1392 4.2035-.3595 2.4946-.9355 5.06-1.4728 7.7334-1.612.3119-.0154.6237-.0928 1.2099-.1894-.4033-.1662-.4989-.2397-.5862-.2358-2.8231.0928-5.5298.6494-8.1783 1.5733-1.0769.375-2.3617.7925-3.4094.576-2.5363-.5219-4.9852-.0928-7.4715.0039zm.5197-11.1331c6.2699-1.5618 12.6022-1.3569 18.9553-.692-6.3614-.8466-12.6979-1.1906-18.9553.692zm19.0925 39.1592c-.1164.1043-.237.2048-.3534.3092.9854.7615 1.9749 1.5154 2.952 2.2846.2328.1817.5821.3827.6195.6147.2079 1.2061.5197 2.4237-.0083 3.6337-.1164.2706-.1456.5721-.2162.862.449-.7886.7816-1.6158.8107-2.4547.0291-.8697.0707-1.9753-.4449-2.5745-.898-1.0553-2.216-1.8014-3.3594-2.675zm.5488-28.2581c2.7732.3132 5.7046.6456 8.4946.9626-2.719-.8698-5.6091-1.5154-8.4946-.9626zm-1.7629 42.9979c1.5467-1.79 2.8938-3.352 4.2451-4.909-1.7671 1.271-3.4551 2.597-4.2451 4.909zm9.4295-32.6185c-.166.1662-.299.259-.382.3865-.749 1.1365-1.746 1.7589-3.2682 1.7009-.8025-.0309-1.6174.259-2.424.402 5.1802-.5566 6.1372-.9625 6.0742-2.4894z" fill="#fff"/><path d="M73.9474 148.019c-1.4178-.529-2.8315-1.017-4.1952-1.604-.3077-.132-.6071-.63-.6154-.963-.079-3.274.8732-6.393 1.896-9.474.844-2.552 1.925-5.034 2.8688-7.554.0707-.193-.1039-.464-.1621-.7-.1954.136-.4906.232-.5738.41-.8149 1.763-1.7213 3.499-2.3616 5.315-.8898 2.532-1.6839 5.103-2.3117 7.701-.3534 1.453-.2911 2.992-.4407 4.739-.7776-.456-1.5301-.8-2.1538-1.287-1.8876-1.469-3.2098-3.332-4.0829-5.462-.1289-.313-.0748-.831.1289-1.102 1.3887-1.828 2.8023-3.638 4.2866-5.396.4491-.534 1.106-.951 1.7338-1.319 2.2535-1.318 3.9042-3.054 4.5195-5.516.5364-2.161 2.2951-3.471 4.0123-5.199-.5405 2.567-2.2452 4.465-2.6735 6.745.1705.062.3451.128.5156.19.5613-1.145 1.1184-2.289 1.688-3.433.657-1.318 1.3139-2.64 1.9999-3.947.1206-.232.3534-.464.5946-.584 1.6756-.815 3.3636-1.615 5.0683-2.381.2245-.1.5987-.023.8607.07 2.1163.75 4.2742 1.314 6.6067 1.105-2.2785-.537-4.5528-1.074-6.3697-1.5-.8815-2.01-1.6091-3.672-2.3201-5.299 1.0312.464 2.0831.962 3.1558 1.407 1.7629.734 3.5757 1.171 5.5464.827 2.0374-.356 4.1412-.483 6.1286-.993 3.0476-.785 4.6526-3.224 6.4696-5.378 2.104-2.493 4.216-4.982 6.465-7.6382.262 1.5962.537 2.9452.699 4.3102.291 2.424.366 4.882.827 7.279.254 1.314-.387 2.064-1.189 2.78-1.925 1.72-3.908 3.39-5.933 5.013-1.497 1.199-3.127 2.254-4.6361 3.441-2.0082 1.577-3.9498 3.228-5.9331 4.832-1.8045 1.457-3.6921 2.837-5.43 4.36-1.476 1.295-2.8024 2.741-4.1828 4.133-1.4676 1.484-2.9728 2.941-4.3614 4.488-.9896 1.101-1.7879 2.354-2.7192 3.502-1.0935 1.357-2.2452 2.679-3.426 4.082z" fill="#fff"/><path d="M75.3442 148.378c.1955-.324.3119-.595.4948-.815 2.2951-2.791 4.4987-5.66 6.9352-8.343 2.1745-2.396 4.4696-4.731 6.9601-6.838 3.11-2.632 6.4944-4.983 9.725-7.495 1.1847-.924 2.2497-1.98 3.4137-2.931 1.301-1.067 2.677-2.056 3.975-3.131 1.787-1.484 3.53-3.023 5.529-4.743.383 2.014.736 3.858 1.09 5.706.058.297.087.595.158.889.32 1.318.715 2.563.07 3.985-.386.847-.17 1.991-.02 2.973.195 1.28.208 2.505-.154 3.765-.457 1.612.424 3.417-.973 4.964-.399.44-.021 1.48-.013 2.246.009.823.042 1.646-.016 2.466-.013.197-.308.429-.532.549-4.732 2.509-8.694 5.918-12.6815 9.305-.341.289-.8274.61-1.2515.61-6.7564.043-13.4213-.703-19.9698-2.261-.8981-.217-1.7504-.572-2.74-.901zM54.1398 192.804c-1.7504.905-2.5945.82-3.7004-.278-2.3076-2.289-4.532-4.658-6.9269-6.866-1.6506-1.523-3.48-2.895-5.3178-4.229-3.1141-2.265-6.2865-4.461-9.4547-6.66-1.9999-1.388-4.1536-2.486-6.7398-2.641-.0457-.085-.0873-.166-.133-.251.923-.854 1.7629-1.817 2.7898-2.543 2.0082-1.411 3.5217-3.159 4.4572-5.3 1.4136-3.228 3.8958-5.663 6.5651-7.983.0249-.023.054-.062.079-.066 1.5799-.135 3.1599-.278 4.744-.367.1123-.008.3825.406.3617.599-.5904 4.863.3825 9.672.6154 14.504.1455 2.981.711 5.981 1.4427 8.891.6653 2.664 2.4365 4.79 4.8605 6.421 1.0061.677 1.9832 1.442 2.7773 2.32 1.264 1.399 2.3617 2.918 3.5799 4.449zM94.2165 109.54c1.0228-1.129 2.0456-2.262 3.0684-3.39 1.555-1.492 2.133-3.456 2.9101-5.312.94-2.238 1.651-4.5651 2.678-6.7685 1.127-2.4083 2.411-4.7664 3.8-7.0549 1.189-1.9637 2.624-3.7999 3.938-5.6748.86 2.6828 1.097 5.4197.711 8.23-.395 2.8645-.641 5.7522-.969 8.6243-.029.2436-.162.5065-.329.6997-2.478 2.8912-4.977 5.7712-7.463 8.6632-1.725 2.006-3.272 4.252-6.224 4.84-1.8835.371-3.821.525-5.7336.78-2.5529.341-4.7731-.664-7.0349-1.503-.2828-.105-.5114-.333-.7443-.611 2.0415.371 3.9457-.731 6.087-.116 1.8752.541 3.8418.066 5.3053-1.407zM72.5669 151.565c.5488-.646.9854-1.133 1.3928-1.647.4158-.53.8815-.568 1.5467-.371 2.6652.792 5.322 1.654 8.0412 2.242 3.7461.812 7.5629 1.26 11.4338.99.6403-.047 1.2931-.008 1.9542-.008-.4782 1.14-2.1039 2.269-3.2722 2.257-5.0891-.05-10.1117-.576-15.0262-1.874-1.9624-.518-3.9291-1.029-6.0703-1.589zM68.11 146.152c-.0665 1.283-.1289 2.459-.1996 3.881-.528-.301-.8856-.475-1.2058-.696-2.6859-1.871-4.8604-4.14-6.3946-6.939-.4283-.78-.4865-1.438.1996-2.087.8232 1.222 1.6506 2.451 2.478 3.676.0416-.027.079-.054.1206-.085-.7443-1.411-1.501-2.818-2.212-4.244-.0582-.116.1996-.368.395-.696 1.5093 3.127 2.898 6.193 6.8188 7.19zM59.3162 177.232c-.6777-.275-1.3554-.549-2.0872-.847 3.135-3.185 4.5694-7.167 6.3156-10.998.237-.521.4907-1.039.7942-1.527.0998-.162.3783-.235.7692-.181-.8732 2.273-1.8045 4.526-2.5986 6.823-.79 2.277-1.4428 4.596-2.1787 6.966-.1871-.051-.6195-.159-1.0478-.271l.0333.035z" fill="#fff"/><path d="M58.0438 159.333c.2411.027.5987-.031.7026.097 1.1226 1.353 2.6901 1.805 4.3948 2.207.6486.155.948-.325 1.4386-.178.5405.24 1.0768.479 1.6173.723.1622.383.3243.765.4823 1.144-.2203.588-.4365 1.172-.6569 1.759-.1829.217-.3659.433-.5488.65-.0998-.031-.2037-.062-.3035-.093.0831-.453.1289-.916.2577-1.361.2745-.951.104-1.225-1.0602-1.519-.3866.684-.7775 1.38-1.214 2.153-1.4968-1.635-2.8315-3.352-5.5548-3.077.0291-.437.054-.785.079-1.129.1247-.46.2453-.916.3659-1.376zM66.2016 162.179c-.5405-.24-1.0769-.479-1.6174-.723.1206-.193.1954-.433.3618-.576 1.1101-.955 1.2681-2.13 1.2057-3.475-.0333-.731.4865-1.488.8066-2.362 1.0852.495 2.0332.928 3.2556 1.484-.657.936-1.1892 1.81-1.8461 2.59-.7068.839-1.58 1.562-1.5883 2.753-.0041.104-.3783.208-.5779.309zM97.9086 152.237c-.1705.085-.4241.31-.686.321-6.0413.263-11.9661-.294-17.683-2.238-.0291-.008-.0416-.05.0166.023 6.0413.623 12.174 1.257 18.3524 1.894zM66.0268 165.083c.2204-.588.4366-1.172.657-1.759.1122-.128.2245-.259.3658-.422 1.3056 1.114 2.7067 2.065 4.6775 2.08-.0249.406-.0499.796-.0748 1.187-.1289.402-.2536.8-.3825 1.202-.183.023-.4574.128-.5281.054-1.2764-1.291-2.8563-1.793-4.8396-1.546.0541-.329.0915-.564.1247-.796zM59.287 177.202c.0167.031.0208.073.0458.089 1.3222.812 1.4469 1.283.5363 2.559-.1496.209-.6361.236-.977.29-.158.027-.3451-.066-.5156-.124-.6985-.244-1.397-.491-2.2203-.781.2661-.843.5281-1.654.8067-2.532.8149.186 1.5882.36 2.3616.534-.0083-.004-.0375-.035-.0375-.035zM58.0438 159.333c-.1206.456-.2411.916-.3659 1.372-.1372.294-.2744.592-.449.967-.8149-.279-1.6049-.553-2.5446-.874.4324-1.024.8399-1.995 1.2474-2.957 1.7836.267 2.162.533 2.1121 1.492zM73.0911 149.235c-1.1684.974-2.1205 2.458-4.137 1.105v-2.752c1.3762.545 2.7192 1.078 4.137 1.647z" fill="#fff"/><path d="M71.2739 167.375c.1289-.402.2536-.8.3825-1.202.1123-.375.2287-.754.395-1.307.7609.24 1.5093.48 2.4115.766-.4033 1.005-.7816 1.948-1.2099 3.019-.6943-.538-1.8585-.124-1.9791-1.276zM18.8858 190.306c-.8814.163-1.2972-.286-1.2764-1.032.0208-.618.1455-1.337 1.0436-1.388 1.2182-.065 1.871.364 1.9126 1.145.0374.711-.6528 1.241-1.6798 1.275zm1.3555-1.565c-.499-.317-.8857-.704-1.0436-.634-.316.139-.5613.506-.7069.827-.0332.077.474.518.6985.495.2994-.027.5613-.344 1.052-.688zM73.7478 148.348c-.7858.939-1.6299.158-2.291-.07-2.5154-.874-2.4988-.92-2.2742-1.713 1.4718.576 2.9437 1.152 4.5652 1.783zM69.8356 151.147c-.657 1.303-1.3139 2.602-1.9584 3.885-.5363-.761-.3367-1.712.079-2.562.3659-.747 1.0727-1.272 1.8794-1.323zM71.1367 153.296c.0998 1.395-.3659 2.037-1.7338 2.451-.0083-.971.8898-2.289 1.7338-2.451zM69.9472 152.828c-.3118.828-.6237 1.655-.9355 2.482-.1788-.062-.3576-.124-.5322-.185.3492-.82.6943-1.643 1.0436-2.463.1372.058.2827.112.4241.166zM116.016 172.864c7.376 1.848 14.356 4.31 21.2 7.121 2.79 1.148 2.802 1.129 2.1 3.885-.266 1.04-.537 2.08-.823 3.116-.287 1.039-.828 1.322-2.004.939-2.375-.773-4.732-1.577-7.089-2.393-3.971-1.376-7.938-2.768-11.9-4.163-.57-.201-1.11-.476-1.655-.727-1.9-.878-2.058-1.21-1.422-3.116.524-1.554 1.06-3.104 1.593-4.662zm4.07 1.566c-.927-.271-1.767-.58-2.64-.731-.287-.05-.89.248-.952.476-.387 1.418-.682 2.864-.956 4.306-.15.8.261 1.365 1.081 1.635 1.151.379 2.295.793 3.471 1.075 1.227.298 2.112-.077 2.657-1.013.237-.41.403-.858.57-1.295 1.056-2.787.806-3.235-2.221-4.001-.066-.015-.141.004-.274.012-.802 1.503-.744 3.344-1.73 4.809-.141-.039-.282-.078-.424-.116.458-1.674.919-3.348 1.418-5.157zm7.501 4.469c.445.166.902.336 1.434.529-.183.476-.332.862-.49 1.272-.886-.305-1.659-.568-2.429-.843-1.272-.46-1.771-.224-2.083 1.005-.066.259-.124.522-.203.781-.183.599-.054 1.021.64 1.26 1.513.518 3.014 1.071 4.519 1.616.686.248 1.09.02 1.318-.611.391-1.074.865-2.126 1.181-3.22.104-.363-.025-1.047-.299-1.202-1.48-.839-3.023-1.596-4.59-2.288-.35-.155-.952-.043-1.327.143-.578.29-.727.839-.311 1.368.544.688 1.912.773 2.64.19zm5.051 1.287c.449 1.751 2.416.889 3.256 2.018-1.355.599-2.686 1.159-3.983 1.782-.349.166-.591.522-.882.788.296.205.558.48.89.6 1.568.572 3.148 1.121 4.74 1.631.304.097.678-.008 1.023-.019-.225-.263-.395-.607-.682-.77-.457-.259-.998-.398-1.659-.645 1.148-.739 2.129-1.346 3.081-1.991.52-.356.852-.97.212-1.322-1.788-.967-3.626-1.89-5.996-2.072zM127.312 165.38c1.035 1.879 2.033 3.692 3.048 5.536-1.684.858-3.356 1.708-5.027 2.559.025.139.05.278.075.421 2.424.274 4.852.8 7.268.746 2.444-.054 4.877-.688 7.359-1.075-.358 2.08-2.948 4.43-4.985 4.612-.27.023-.57-.058-.832-.151-2.848-1.016-5.696-2.041-8.54-3.077-.253-.092-.54-.239-.69-.44-2.058-2.807-1.422-7.415 2.324-9.131z" fill="#fff"/><path d="M126.718 161.48c-.096-.213-.191-.425-.283-.634.033-.027.067-.05.096-.077.183.201.374.394.549.603 2.053 2.493 4.12 4.982 6.145 7.495.503.626 1.056.978 1.929 1.083 3.738.456 7.467.966 11.193 1.511.785.116 1.534.448 2.515.75-2.711.298-5.226.518-7.725.862-2.624.359-5.226.866-7.846 1.252-.653.097-1.347.024-2.012-.046-1.385-.147-2.761-.344-4.17-.703 2.931-.337 5.862-.669 8.885-1.017-.096-.05-.146-.097-.183-.089-1.41.255-2.1-.448-2.703-1.535-.619-1.113-1.488-2.103-2.249-3.146-1.385-2.107-2.765-4.206-4.141-6.309zm18.202 10.534c-.016-.093-.029-.186-.045-.282-1.518.123-3.031.243-4.549.367.004.066.013.127.017.193 1.526-.093 3.052-.185 4.577-.278z" fill="#fff"/><path d="M130.347 164.456c3.767-1.079 8.873 1.867 9.771 5.655-1.38-.147-2.715-.402-4.054-.406-1.372-.004-2.22-.529-2.923-1.585-.836-1.256-1.838-2.427-2.794-3.664zM126.718 161.48c1.38 2.103 2.761 4.202 4.137 6.305.682 1.128 1.359 2.253 2.045 3.378.246.398.508.789.857 1.334-2.179.286-4.199.549-6.22.812-.033-.097-.067-.19-.1-.286.828-.348 1.634-.758 2.491-1.029.894-.278 1.097-.649.661-1.461-1.543-2.868-3.035-5.76-4.536-8.647-.358-.685-.67-1.388-.878-2.15.516.584 1.027 1.164 1.543 1.744zM90.8609 71.5495c.6403-.7306 1.2765-1.4651 1.8378-2.1068-.0375.0116-.2786.1044-.5281.1662-.553.1353-1.1433.4175-1.6589.3325-.6653-.1083-1.2723-.518-1.9043-.8002.3659-.3518.6819-.7654 1.1018-1.0515 3.7628-2.5784 7.9996-3.3283 12.5568-2.6943 2.316.3208 3.937 1.8091 5.638 3.1196.561.4329 1.014.9857 1.38 1.5462-1.347-.8775-2.694-1.7511-4.179-2.7214.171 2.3465.03 2.4586-1.987 1.5695-3.089-1.3646-6.116-1.1172-9.1595.2164 3.2098-.5605 6.0785-.0734 8.2945 2.4238-.303-.1353-.69-.2049-.902-.4214-2.4988-2.5552-7.7709-2.1183-10.2156.3866-.0458.0464-.1165.0773-.1747.1121-.0374-.0193-.0665-.0464-.0998-.0773zM78.679 75.0663c-2.6277 1.6468-6.1286 1.2409-7.4216-.7654-.2412-.3711-.8648-.8311-.7734-1.0321.341-.7383.7651-1.5733 1.4303-2.0179.8981-.5992 2.0498-.8736 2.9811-1.2409-1.318-.1894-2.7732-.9548-4.3282-.259-.316.1392-.657.4098-.7858.6997-.2952.6765-.8856.9471-1.4345.6301-.4407-.2551-.898-.9316-.8565-1.3877.1248-1.4535 1.7962-2.6132 3.8002-2.6635 2.0457-.0541 3.9915.4136 5.7835 1.3607.1538.0812.3326.1701.4282.3015.2828.3943.5239.8157.7859 1.2255-.4158.1353-.8274.2706-1.131.3672.7983.4909 1.7297 1.0631 2.661 1.6352-.0623.1082-.1247.2126-.1912.3208-1.9001-1.8903-4.1412-2.072-6.5568-1.1867-1.5176.5566-2.0498 1.2408-2.1662 2.7523 1.7545-2.0101 4.0663-2.1184 6.378-1.9019.8149.0773 1.5591.7925 2.4614 1.2834-1.397.5567-2.5072 1.2254-3.7046 1.4187-1.2265.1972-2.5404-.0696-3.9873-.143 2.1122 1.8323 4.3324 1.5037 6.6275.603zm-3.1932-.9896c1.3762.2397 2.3408-.2938 2.5279-1.4612-.424-.1082-.8606-.2203-1.0976-.2822-.5364.4136-.8898.8852-1.3305.9664-.3783.0696-.8523-.3054-1.4469-.5489.2245.3827.3867.661.553.9394-.2744-.2281-.5488-.4562-.9064-.7577-.5156.2667-1.0769.5528-1.6382.8388.9106.3866 1.7629.5567 2.6277.6456.2204.0271.474-.2165.711-.3402zM82.932 93.6839c-.9521-.5837-.7317-1.4728-.5529-2.2459.6652-2.8529-.2162-3.4482-3.1599-3.4327-.5946.0038-1.5176-.3015-1.7047-.7036-.2495-.5334.054-1.2988.158-1.9599.0208-.143.1829-.2938.3243-.3904 1.4095-.9625 1.9874-2.3155 2.4156-3.8541.6237-2.2227 1.6631-4.345 2.2286-6.5755.4449-1.7627.4407-3.6221.632-5.3616 0 1.3336.2037 2.791-.0499 4.1787-.3285 1.7976-1.0311 3.5333-1.5426 5.3037-.3243 1.1288-.7026 2.2576-.8523 3.4057-.158 1.2138-.5987 2.157-1.7338 2.8297-.4074.2396-.7692.6223-1.0145 1.0128-.4282.6803-.0873 1.0553.7152 1.2215 1.555.3209 3.0684.8157 4.6234 1.1288.4823.0966 1.106-.058 1.5675-.2822.8232-.3982 1.5342-.9973 2.3574-1.3916.6653-.317 1.422-.4059 2.2411.4213-2.0415-.344-3.268.6881-4.5985 1.5656 1.1184.7731 3.9041.5489 5.3593-.402.8898-.5837 1.7297-1.1597 1.6673-2.3774-.0457-.9355-.4615-1.5617-1.3845-1.7898-1.0603-.259-2.0082.2783-2.3866 1.179-.0831.1933-.2328.3634-.5488.5064 0-.7113-.0374-1.4264.0083-2.1338.0541-.8737-.2079-1.6043-.7442-2.3349-.3576-.4909-.6653-1.179-.6029-1.7395.237-2.1571.6278-4.2987.9771-6.448.0207-.1391.1704-.2628.5238-.3672 0 .2513.0375.5064-.0041.7499-.3326 1.9097-.7193 3.8116-.9979 5.7289-.0707.4871.1206 1.0476.3326 1.5231.4283.9703.948 1.9019 1.4844 2.9573-.0416.0077.1621-.0116.3575-.058 1.8378-.433 2.4573-.2668 3.1683.8543.6195.978.4116 2.5513-.499 3.4598-.9438.9354-2.1163 1.4805-3.4967 1.6197-1.6672.1662-1.6797.2087-1.4011 1.7666.0956.5257-.0042 1.0785-.0167 1.6197l.0333.0348c-.2204-1.0631-.4366-2.13-.6652-3.2278-.7609-.2127-1.5758-.4369-2.3118-.6417-.9646 1.4766-1.5009 2.9881-.9396 4.6697l.0332-.0194z" fill="#fff"/><path d="M86.7865 92.8642c-.0707.4175-.1414.835-.2328 1.3839 2.266-.6958 4.2076.2513 6.2075.8389.2495-1.1172.4906-2.1841.7318-3.2511.1206.0232.2411.0464.3617.0696-.1954 1.0244-.3866 2.045-.5862 3.1041.6652.1701 1.5675-.2319 1.8377.7964.1538.5798.0915.9973-.5114 1.0669-1.6215.1933-2.4822 1.2602-3.3054 2.3581-.9646 1.279-2.3907 1.658-3.9083 1.751-1.4261.085-2.873-.089-4.3033-.011-1.5467.085-2.6152-.611-3.505-1.6241-.9979-1.1326-1.8294-2.4199-3.5923-2.8644.9438-.4755 1.8502-1.0244 2.8356-1.411 1.0436-.4098 2.162-.6494 3.2389-.9896.3077-.0967.5862-.2706.8773-.4059l-.0291.0155c1.2805 1.3645 2.6776 1.2022 3.5964-.4214.079-.1392.2121-.2513.3202-.3788l-.0333-.0271zm-8.2407 4.461c.5364.6301 1.106 1.295 1.6756 1.9599.7775.9009 1.713 1.2909 3.0144 1.1439.9729-.108 1.9957.047 2.9769.186 1.4095.197 2.8149.166 3.8668-.7539.8357-.7306 1.397-1.7357 2.1038-2.648-1.4719-.3557-2.8564-1.0631-4.3407-.3518v1.4303c-.0665.0077-.1289.0193-.1954.0271-.0873-.4291-.1747-.8621-.2744-1.3376-.6611.1315-1.3097.259-1.9916.3905v1.6351c-.0665.0039-.1289.0039-.1954.0078-.0665-.5683-.1331-1.1365-.2079-1.7473-.7941-.1082-1.5259-.2049-2.345-.3131v2.2575c-.0915.0039-.1829.0078-.2744.0155-.0458-.5103-.1414-1.0167-.1289-1.527.0249-1.036-.2786-1.2486-1.3097-.9354-.7318.2242-1.4968.3556-2.3741.5605zm16.261-1.2138c-.3284-.1585-.6361-.3827-.9853-.4562-1.106-.2397-2.2785-.2976-3.3263-.661-1.2722-.4407-2.4364-.5257-3.7627-.2049-1.0769.259-2.2577.1856-3.3928.1933-.6902.0039-1.4344-.3054-2.0622-.1469-1.5259.3788-2.9978.9471-4.4904 1.438 1.5716.2977 3.0892.8311 4.5403-.0812.1663-.1043.5405.0503.8149.1083 1.8876.402 3.7212.8272 5.6878.1044 1.1392-.4214 2.4115-.4214 3.6588.1198 1.0187.4329 2.1455.3208 3.3179-.4136zM101.784 72.5542c-.711.9239-1.684 1.527-2.8564 1.5618-1.4136.0386-2.8439-.1044-4.2492-.2938-1.0602-.1431-2.0872-.4794-3.1266-.7268 1.0061-2.6248 6.3613-3.0113 10.2322-.5412zm-3.954.6456c-1.397.3518-1.9957.0464-3.031-1.5849-.6861.3324-1.3763.6687-2.1496 1.0437 3.8958 1.6777 6.6649 1.6159 8.2536-.1237-.82-.8079-1.1854.402-1.834.3518.2079-.2629.4158-.5258.6819-.8659-.7443-.2358-1.4386-.4523-2.133-.6688.079.0967.1539.1933.2329.2938-.4116.2435-.8149.661-1.2349.6765-.4158.0116-.8482-.3827-1.3014-.6108.3825 1.179 1.4345 1.3569 2.5155 1.4883zM77.9885 58.6256c1.5717 0 3.1433-.0193 4.7149.0038 1.3971.0232 2.6111-.1198 3.7088-1.1828.6527-.6302 1.8419-.9858 2.8314-1.067 3.0684-.2551 6.1494-.3286 9.2303-.4368.2952-.0116.6028.2203.9022.3402-.0166.116-.0333.2281-.0541.344-1.081 0-2.1662.0696-3.2389-.0116-2.7773-.2126-5.5298-.1662-8.2282.5412-.5031.1315-1.0727.3286-1.4136.6688-.8648.8659-1.9084 1.152-3.1059 1.1056-1.7837-.0696-3.5673-.1547-5.351-.232 0-.0309.0041-.0541.0041-.0734zM75.4729 62.8203c2.4864-.0966 4.9353-.5257 7.4715-.0039 1.0436.2165 2.3326-.201 3.4094-.5759 2.6485-.9239 5.3552-1.4845 8.1783-1.5734.0915-.0038.183.0696.5863.2358-.5862.0928-.8981.1701-1.2099.1895-2.6735.1391-5.2388.6764-7.7335 1.6119-1.3263.4987-2.7025.6224-4.2035.3596-1.5259-.2668-3.1432-.0696-4.719-.058-.6029.0038-1.2016.0502-1.8004.0773.0084-.0889.0167-.174.0208-.2629zM75.9932 51.6871c6.2574-1.8826 12.598-1.5385 18.9552-.692-6.353-.6648-12.6895-.8697-18.9552.692zM90.9569 71.6329c-.0167.0657-.025.1314-.0499.1933-.2869.6997-.948 1.4844-.79 2.0797.291 1.094.9812 2.13 1.6714 3.0848.5696.7847 1.3846 1.4148 2.1537 2.1764-1.9874-.7886-4.27-3.5139-4.2201-5.3424.0208-.7654.7359-1.5192 1.1351-2.2768.0374.0309.0665.0579.0998.085zM95.0853 90.8457c1.1434.8736 2.4573 1.6197 3.3595 2.6712.5114.5992.4698 1.7047.4449 2.5745-.0291.8389-.3576 1.67-.8108 2.4547.0707-.2861.0998-.5914.2162-.862.5281-1.2139.2162-2.4277.0084-3.6338-.0416-.2319-.3867-.4329-.6195-.6146-.9771-.7693-1.9667-1.5231-2.9521-2.2846.1206-.1005.237-.201.3534-.3054zM95.6343 62.5871c2.8855-.5528 5.7747.0928 8.4947.9626-2.79-.3131-5.7215-.6456-8.4947-.9626zM93.8716 105.586c.7941-2.312 2.4822-3.637 4.2451-4.909-1.3513 1.558-2.7026 3.119-4.2451 4.909zM103.301 72.9678c.062 1.5269-.894 1.9328-6.0744 2.4895.8107-.1431 1.6256-.433 2.4239-.4021 1.5215.058 2.5195-.5644 3.2685-1.7009.083-.1275.216-.2242.382-.3865zM38.4982 189.36c-.4947-1.322-.9895-2.648-1.4801-3.97.1413-.046.2827-.093.4241-.139.4781 1.33.9521 2.66 1.4302 3.989-.1247.039-.2494.082-.3742.12zM20.2415 188.741c-.4906.34-.7526.661-1.0478.688-.2245.023-.7317-.421-.6985-.495.1455-.321.3908-.688.7068-.827.1539-.066.5405.321 1.0395.634zM120.086 174.429c-.495 1.81-.957 3.483-1.418 5.161.141.039.283.077.424.116.985-1.465.927-3.305 1.73-4.809.133-.007.212-.027.274-.011 3.023.765 3.276 1.213 2.22 4.001-.166.44-.332.889-.569 1.295-.545.931-1.431 1.31-2.657 1.012-1.177-.286-2.324-.695-3.472-1.074-.819-.271-1.231-.835-1.081-1.635.275-1.446.57-2.888.956-4.307.063-.232.666-.529.953-.475.869.15 1.713.456 2.64.726zM127.587 178.899c-.728.583-2.096.498-2.636-.19-.416-.529-.266-1.078.312-1.368.374-.186.977-.298 1.326-.143 1.567.692 3.106 1.45 4.59 2.288.274.155.403.839.299 1.203-.316 1.094-.79 2.145-1.18 3.22-.229.63-.632.858-1.318.61-1.506-.545-3.006-1.097-4.52-1.615-.698-.24-.823-.665-.64-1.261.079-.255.137-.518.204-.78.311-1.23.81-1.466 2.083-1.006.765.279 1.542.538 2.428.843.158-.406.307-.792.49-1.272-.536-.197-.989-.363-1.438-.529zm.382 4.14c.079-.464.345-1.079.175-1.21-.441-.34-1.069-.472-1.626-.684-.594 1.418-.524 1.507 1.451 1.894zM132.639 180.187c2.37.181 4.207 1.105 5.991 2.079.644.352.308.967-.212 1.322-.948.646-1.933 1.253-3.081 1.991.661.248 1.197.387 1.659.646.287.162.461.506.682.769-.341.012-.719.116-1.023.019-1.592-.51-3.172-1.059-4.74-1.631-.328-.12-.594-.394-.89-.599.291-.267.537-.623.882-.789 1.297-.622 2.628-1.183 3.983-1.782-.836-1.136-2.802-.274-3.251-2.025zM144.921 172.013c-1.526.092-3.052.185-4.574.278-.004-.066-.012-.128-.016-.193 1.517-.124 3.031-.244 4.548-.368.013.097.025.19.042.283zM74.6873 73.6908c-.1622-.2783-.3243-.5566-.553-.9393.5945.2435 1.0685.6185 1.4469.5489.4407-.0812.7941-.5528 1.3305-.9664.237.0618.6735.1739 1.0976.2822-.1871 1.1713-1.1517 1.7009-2.5279 1.4612-.2619-.1276-.528-.2551-.7941-.3866z" fill="#fff"/><path d="M74.6874 73.6913c.2661.1276.5322.259.7983.3866-.237.1198-.4907.3633-.711.344-.8648-.0889-1.7213-.259-2.6277-.6455.5613-.2861 1.1184-.576 1.6381-.8389.3534.2977.6279.5257.9023.7538zM86.8199 92.8988c-.1081.1237-.2411.2397-.3201.3789-.9189 1.6235-2.3117 1.7898-3.5965.4213-.5613-1.6815-.0249-3.193.9397-4.6697.7317.2049 1.5467.4291 2.3117.6417.2245 1.0978.4449 2.1648.6652 3.2278zM78.5459 97.3248c.8773-.2049 1.6423-.3363 2.3741-.5605 1.0311-.3132 1.3346-.1006 1.3097.9354-.0125.5064.0831 1.0167.1289 1.527.0914-.0039.1829-.0078.2744-.0155v-2.2575c.8149.1082 1.5508.2087 2.345.3131.0706.6108.1372 1.179.2079 1.7473.0665-.0039.1288-.0039.1954-.0078v-1.6351c.686-.1353 1.3346-.2629 1.9915-.3905.0957.4755.183.9085.2744 1.3375.0666-.0077.1289-.0193.1955-.027v-1.4303c1.4884-.7113 2.8688-.0039 4.3407.3518-.7068.9123-1.264 1.9173-2.1039 2.648-1.0519.9203-2.4572.9513-3.8667.7533-.9854-.139-2.0082-.293-2.9769-.185-1.3014.147-2.2369-.244-3.0144-1.1443-.5696-.6649-1.1351-1.3337-1.6756-1.9599z" fill="#fff"/><path d="M94.8069 96.1114c-1.1725.7345-2.2993.8466-3.3262.402-1.2474-.5373-2.5196-.5412-3.6589-.1198-1.9624.7267-3.8002.3015-5.6878-.1044-.2702-.058-.6444-.2126-.8149-.1082-1.4511.9161-2.9728.3788-4.5403.0811 1.4926-.4909 2.9645-1.0592 4.4904-1.438.6278-.1546 1.3721.1508 2.0622.1469 1.1351-.0077 2.3159.0657 3.3928-.1933 1.3305-.317 2.4947-.2358 3.7628.2049 1.0519.3672 2.2202.4214 3.3262.661.3576.0851.6652.3132.9937.4678zM99.0724 72.8822c.6486.0502 1.0186-1.1597 1.8336-.3518-1.5924 1.7396-4.3573 1.8053-8.2532.1276.7734-.375 1.4636-.7074 2.1496-1.0437 1.0353 1.6274 1.634 1.9328 3.031 1.5849.4116-.1083.8233-.2126 1.239-.317z" fill="#fff"/><path d="M99.0723 72.8833c-.4116.1043-.8274.2087-1.239.317-1.081-.1315-2.1329-.3054-2.5154-1.4961.449.2281.8814.6263 1.3014.6108.4199-.0116.8232-.4329 1.2348-.6765-.079-.0966-.1538-.1933-.2328-.2938.6943.2165 1.3887.4369 2.1329.6688-.2661.344-.474.6069-.6819.8698zM127.969 183.039c-1.975-.387-2.046-.472-1.451-1.894.557.212 1.185.344 1.626.684.17.127-.096.742-.175 1.21z" fill="#fff"/><path d="M109.003 164.882c-1.42 1.063-2.607 2.004-3.845 2.868-6.3028 4.399-11.245 10.056-15.2825 16.518-.8527 1.362-1.5127 2.916-1.9205 4.469-.8787 3.362-1.5497 6.78-2.2727 10.179-.1001.479-.0148.996-.0148 1.671 1.1456-.86 2.1726-1.627 3.1959-2.395.0815.048.1631.1.2447.148-.3189.516-.5673 1.096-.9677 1.535-1.0048 1.107-2.1652 2.078-3.0884 3.24-.6785.86-1.1605 1.901-1.5831 2.923-.2178.527-.4689.904-.8978 1.044-.2867.093-.6528.08-1.1414-.066.8491-1.535 1.6165-3.067 2.5323-4.502.4189-.657.519-1.229.5561-1.997.1224-2.528-.6266-5.111.4264-7.587.0704-.163.0408-.366.0408-.38-1.8575-.111-3.6668-.17-5.4613-.351-.7489-.074-1.546-.281-2.1985-.65-2.84-1.605-5.8802-1.76-9.0242-1.468-2.6175.243-5.2499.335-7.8637.623-1.0974.122-2.2134.443-3.2219.893-2.0428.912-4.2451.801-6.3658 1.196-2.3098.428-4.6011 1-6.9294 1.284-2.6954.329-5.1906 1.248-7.7117 2.133-.33.115-.7082.085-1.0641.122-.0482-.107-.1001-.21-.1483-.317.33-.229.6303-.554.9973-.668 2.7177-.849 5.4464-1.661 8.1715-2.476.3225-.096.6599-.148 1.2049-.27-4.7234-1.354-9.1873-2.705-13.6994-3.886-1.4564-.382-3.026-.419-4.5533-.455-.0357-.001-.0714-.002-.1071-.002-2.0762-.052-4.1635-.023-6.2361.121-.9639.067-1.9205.443-2.8548.757-1.153.387-2.6991.1-3.422-.834 1.3124-.299 2.7435.863 3.8558-.48-1.1605-1.351-2.1281-2.827-.5598-4.631-1.5646 1.376-5.072 5.406-5.3018 7.797-.2336 2.425-.1557 4.879-.2076 7.322-.0038.218.1112.443.0964.661-.1372 1.886-.0742 3.757.3707 5.606.063.269.0074.564.0074.848-1.6239.107-1.7536.03-1.7425-1.55.0222-3.767.0593-7.539.1409-11.307.063-2.886 1.3643-5.266 3.207-7.407.8342-.97 1.6869-1.93 2.4284-2.97.508-.713.8491-1.547 1.2421-2.34.7192-1.454 1.6869-2.572 3.6074-2.602 0-.727-.0074-1.417 0-2.107.0185-1.362 1.3162-2.646 2.6435-2.425.9269.155 1.2643-.199 1.8019-.878 1.4459-1.827 3.1291-3.465 4.6196-5.263 1.1567-1.395 2.1503-2.919 3.2329-4.373 1.7722-2.38 3.5259-4.775 5.3537-7.111.6748-.86 1.2309-1.679 1.5535-2.779 1.0159-3.436 3.0958-6.178 5.9469-8.374.8972-.69 1.8353-1.48 2.3803-2.435 2.0539-3.61 4.8309-6.569 8.1825-8.92 3.0699-2.155 4.7494-5.019 5.4612-8.566.6637-3.317 1.3459-6.635 1.8723-9.975.1446-.923.0297-2.063-.4041-2.867-2.9178-5.411-3.6853-11.2303-3.6-17.2494.0445-3.0668.0741-6.1372-.0148-9.2002-.0631-2.2291.5858-4.2219 1.6498-6.1114.6748-1.1994.7712-2.2954.3819-3.7052-.3745-1.3654-.2002-2.9818.0964-4.4137.634-3.0668 2.0577-5.842 3.8744-8.3773 1.5534-2.17 2.8288-4.447 3.8262-6.9343 2.6138-6.521 7.6857-10.3922 14.1554-12.7541 6.0136-2.1958 11.9791-1.6644 17.9487.0738 4.111 1.1994 8.078 2.7715 11.508 5.3843 1.201.9116 2.632 2.0039 3.088 3.314 1.138 3.2587 3.322 5.9933 4.379 9.2261.767 2.3471 1.197 4.8308 1.527 7.2849.831 6.1704 1.576 12.3555 2.243 18.5481.408 3.7753.605 7.5506 1.669 11.2484.801 2.775 1.179 5.672 1.702 8.521.333 1.82.504 3.672.889 5.477.72 3.384 2.369 6.392 4.101 9.348 1.757 3.004 3.466 6.048 5.372 8.956.667 1.019 1.739 1.934 2.833 2.484 7.678 3.845 12.728 10.045 16.268 17.64 3.56 7.632 5.71 15.71 7.497 23.888 1.472 6.735 2.885 13.485 4.134 20.261.701 3.794 1.005 7.657 1.513 11.488.081.613-.067.985-.701 1.111-1.502.299-2.996.849-4.497.863-7.927.089-15.858.041-23.788.041-4.416-1.055-8.913-.055-13.529-.568.441-.82.786-1.639 1.283-2.355 1.85-2.657 3.485-5.417 4.82-8.377 1.312-2.908 2.914-5.691 4.249-8.591 2.695-5.861 5.42-11.714 7.886-17.67 1.116-2.702 1.724-5.728 1.112-8.636-.879-4.196-2.451-8.189-4.961-11.739-.237-.339-.641-.587-1.012-.801-.044-.025-.089-.051-.133-.076-1.142-.654-2.286-1.308-3.463-1.894-1.624-.809-3.367-1.004-5.18-1.167-2.691-.243-5.239.277-7.782.897-1.42.347-2.818.875-4.149 1.491-4.334 2.008-8.616 4.163-12.275 7.263-1.469 1.243-2.51 3-3.697 4.557-.478.632-.897 1.325-1.223 2.045-.349.768-.575 1.594-.823 2.406-.26.849-.486 1.705-.753 2.646 1.832-1.089 3.53-2.661 6.292-2.137zm-35.5742-.509c.0223-.373.0445-.749.0668-1.133-1.7574-.015-3.0069-.922-4.171-1.985-.1261.155-.2262.28-.3263.402-.1446-.365-.2892-.731-.4301-1.092.178-.1.5117-.196.5117-.296.0074-1.136.786-1.826 1.4163-2.627.5858-.746 1.0603-1.58 1.6461-2.473-1.0863-.531-1.9353-.945-2.903-1.417-.2855.838-.7489 1.557-.7193 2.255.0557 1.288-.0852 2.406-1.0751 3.318-.1483.14-.2188.365-.3226.549-.4338-.143-.7007.314-1.2828.17-1.5238-.384-2.9179-.815-3.9189-2.107-.0927-.118-.4115-.066-.6266-.092.0408-.915-.2929-1.174-1.8797-1.425-.3633.919-.7267 1.845-1.1123 2.823.8379.31 1.5424.569 2.2691.834.1557-.358.278-.638.4004-.922-.0223.328-.0408.66-.0705 1.077 2.4285-.262 3.6186 1.377 4.9533 2.938.3893-.742.7378-1.402 1.0826-2.056 1.0381.281 1.1901.543.9454 1.451-.1149.424-.1557.863-.2298 1.299.089.029.1816.059.2706.088.1632-.206.3263-.413.4894-.62-.0296.222-.063.443-.1075.764 1.7648-.236 3.1737.244 4.3156 1.477.063.07.3114-.03.4708-.052.1076 1.1 1.1457.705 1.7648 1.214.3819-1.022.7193-1.923 1.0789-2.882-.8045-.273-1.4756-.502-2.1503-.731-.1521.531-.2559.889-.356 1.251zm-11.0299 10.529c.3819.103.7637.21.9343.258.6562-2.262 1.2383-4.476 1.9427-6.65.7082-2.192 1.5424-4.344 2.3173-6.514-.3486-.051-.5932.015-.6859.174-.2707.469-.4969.959-.7082 1.458-1.5572 3.657-2.8363 7.458-5.6317 10.499.6525.284 1.2568.546 1.8648.812-.6896-.166-1.3792-.336-2.1058-.509-.2484.837-.482 1.616-.7193 2.417.7341.277 1.357.516 1.9798.745.1483.056.3152.144.4598.118.304-.051.7378-.077.8712-.276.812-1.218.7008-1.669-.4782-2.444-.026-.018-.0297-.059-.0408-.088zm31.1471-64.594c-1.3014 1.406-3.0587 1.86-4.7271 1.344-1.9094-.587-3.6075.465-5.4279.11.2076.266.4116.484.6637.584 2.0132.8 3.9967 1.756 6.2731 1.435 1.7055-.243 3.4295-.387 5.1127-.745 2.6324-.558 4.0116-2.705 5.5505-4.621 2.217-2.757 4.445-5.506 6.655-8.27.148-.1846.267-.4355.293-.668.293-2.7457.511-5.4987.864-8.2334.344-2.6829.137-5.2957-.634-7.8569-1.172 1.7899-2.451 3.5428-3.511 5.4176-1.239 2.1847-2.384 4.4359-3.389 6.735-.916 2.0999-1.5499 4.3215-2.3878 6.4617-.6934 1.772-1.2124 3.646-2.5953 5.071.0741-.21.1334-.425.2187-.627 1.0233-2.436 2.0837-4.861 3.0699-7.3112.8715-2.1589 1.4795-4.4433 2.5395-6.4989 1.331-2.5722 3.055-4.9378 4.516-7.4472.612-1.0481 1.301-2.2069 1.401-3.3657.189-2.1109-.081-4.2588-.074-6.3918.011-2.3803-.207-4.7127-.845-7.0155-.211-.7603-.211-1.5758-.367-2.3545-.104-.5167-.211-1.0776-.486-1.5094-.53-.823-1.164-1.5832-1.794-2.336-.364-.4318-.742-.9337-1.227-1.1588-1.154-.5351-1.669-1.2917-1.661-2.6055.007-1.9817-.275-2.2142-2.2102-2.7715-.304-.0886-.6043-.1845-.9083-.2805.0111-.0479.0185-.0959.0297-.1402.5413.1218 1.0863.2436 1.6278.3654.048-.0775.1-.155.148-.2325-.8934-.62-1.7276-1.3729-2.699-1.8305-2.9401-1.3802-6.0952-1.871-9.3245-1.9338-1.7796-.0332-2.6843-1.1071-2.2727-2.8121.4782-1.978 1.0084-3.945 1.5052-5.8825-1.42.6753-2.2986 1.9006-2.814 3.3915-.2818.8082-.2929 1.7308-.6711 2.48-.6117 1.2289-1.2235 2.4688-2.903 2.753-1.268.2141-2.5471.6864-3.6816 1.2954-1.7277.9262-2.9289 2.4319-3.6704 4.2476-.3708.9079-.6526 1.8563-.901 2.8048-.4412 1.6865-.8231 3.3915-1.242 5.0817-.1298.5203-.3633 1.0222-.456 1.5463-.2336 1.3765-.6414 2.6571-1.7092 3.6424-.1038.096-.1706.2583-.1928.3986-.3782 2.0851-.6266 4.1812-.0705 6.27 1.116 4.1886 1.5498 8.4769 1.7574 12.78.1224 2.5833.6266 5.0374 1.4756 7.4731 1.0011 2.86 2.9549 5.1373 4.4676 7.6833.7341 1.236 1.4608 2.495 2.3543 3.609 1.6795 2.097 3.7335 3.543 6.6365 2.86.3671-.084.8713-.417.9529-.73.2002-.753.1853-1.561.278-2.558.1076.628.2596 1.1.2522 1.569-.0075.491-.1706.978-.2707 1.48 1.7277.527 3.3887.701 5.0386-.004.4968-.188.9639-.458 1.4422-.698zm-18.0743 36.735c1.0529-1.336 2.0762-2.598 3.055-3.897.8305-1.1 1.5424-2.292 2.4248-3.344 1.2383-1.476 2.5767-2.867 3.8892-4.284 1.2272-1.329 2.4136-2.709 3.7298-3.945 1.5497-1.454 3.2292-2.768 4.842-4.163 1.7685-1.532 3.4999-3.108 5.2907-4.613 1.3458-1.133 2.7988-2.141 4.1338-3.285 1.806-1.55 3.574-3.14 5.291-4.786.712-.683 1.283-1.403 1.06-2.654-.411-2.288-.478-4.631-.738-6.949-.144-1.299-.389-2.59-.623-4.114-2.005 2.535-3.892 4.911-5.765 7.292-1.62 2.055-3.0511 4.384-5.7687 5.133-1.7722.487-3.6482.609-5.4649.949-1.7537.328-3.3702-.093-4.9459-.79-.9566-.428-1.8909-.901-2.814-1.343.634 1.553 1.2828 3.136 2.0688 5.059 1.6202.41 3.6482.923 5.6799 1.432-2.0799.199-4.0004-.336-5.8913-1.055-.2335-.089-.5672-.163-.7674-.067-1.5201.731-3.0254 1.495-4.5195 2.273-.2188.115-.4227.336-.5302.558-.6117 1.247-1.1975 2.509-1.7833 3.768-.508 1.088-1.0048 2.184-1.5053 3.277-.152-.059-.3077-.122-.4597-.181.3818-2.177 1.9019-3.993 2.3839-6.44-1.5275 1.65-3.0958 2.901-3.5778 4.964-.545 2.351-2.0206 4.004-4.0301 5.266-.5598.351-1.1456.749-1.546 1.258-1.3236 1.68-2.5842 3.407-3.8225 5.152-.1817.259-.2299.753-.1149 1.052.7786 2.033 1.9576 3.809 3.6408 5.215.5561.465 1.2272.789 1.9205 1.228.1298-1.664.0779-3.136.393-4.524.5635-2.48 1.268-4.934 2.0614-7.351.571-1.735 1.3755-3.396 2.1059-5.075.0741-.173.3374-.262.5116-.391.0519.225.2076.484.1446.668-.8416 2.406-1.8056 4.779-2.5582 7.211-.9121 2.941-1.7611 5.92-1.6906 9.045.0074.322.2743.794.5487.919 1.2161.561 2.4766 1.023 3.7409 1.532zm1.2457.343c.8824.314 1.6425.653 2.4433.856 5.8394 1.491 11.7789 2.2 17.8074 2.159.3744-.004.8119-.306 1.1159-.583 3.556-3.233 7.093-6.484 11.308-8.883.2-.114.464-.339.475-.524.052-.782.022-1.568.014-2.354-.007-.731-.344-1.724.012-2.144 1.245-1.477.459-3.2.867-4.739.319-1.203.308-2.373.137-3.594-.133-.938-.326-2.03.019-2.838.578-1.358.226-2.543-.063-3.805-.063-.281-.093-.569-.141-.849-.311-1.764-.627-3.528-.971-5.447-1.784 1.642-3.337 3.107-4.931 4.528-1.154 1.026-2.381 1.971-3.545 2.989-1.034.908-1.9834 1.919-3.0438 2.798-2.8808 2.398-5.8987 4.642-8.6719 7.155-2.2209 2.012-4.2674 4.241-6.2065 6.529-2.1726 2.561-4.1376 5.299-6.1842 7.964-.1631.214-.2669.468-.4412.782zM54.2756 191.21c.0557-.107.115-.214.1706-.325-1.09-1.199-2.1578-2.417-3.2701-3.598-2.9623-3.144-5.9209-6.285-9.5098-8.757-1.053-.727-2.0577-1.525-3.055-2.333-2.4248-1.967-4.9941-3.72-7.949-4.771-.8305-.296-1.965-.307-2.7622.025-.9676.403-.8823 2.669-.0444 3.407.5042.442 1.0158.878 1.4941 1.347 1.4089 1.395 2.7065 2.915 4.2192 4.185 2.1392 1.789 3.118 4.24 4.2303 6.635.0445.1-.0037.24-.0222.624-.4524-.768-.7527-1.351-1.1197-1.89-.9936-1.472-1.8501-3.081-3.0588-4.362-2.2134-2.343-4.6121-4.513-6.9887-6.698-.5895-.543-1.3569-.93-2.0947-1.273-.7898-.369-1.4275 0-1.902.664-.7119 1-.8046 2.742-.0408 3.705.7675.971 1.6758 1.831 2.5471 2.716.8713.882 1.7648 1.739 2.662 2.591.3189.303.7193.528.9973.86.597.712 1.142 1.469 1.7055 2.207-.0816.059-.1631.118-.2447.177-.3448-.362-.6896-.72-1.2606-1.314-.2484.901-.4412 1.594-.6525 2.355.7452.059 1.4719.011 2.1393.188 3.6816.978 7.3817 1.911 11.0114 3.056 3.4443 1.084 6.8812 1.752 10.4812 1.055.7712-.144 1.5424-.314 2.3172-.476zm3.5333-1.414c-1.0863-1.461-2.0651-2.911-3.1885-4.24-.7081-.838-1.5831-1.568-2.4766-2.214-2.1615-1.561-3.7409-3.587-4.3341-6.13-.6488-2.782-1.1568-5.643-1.2865-8.488-.2077-4.609-1.0789-9.204-.5488-13.846.0223-.185-.2224-.58-.3225-.572-1.4126.085-2.8215.221-4.2303.35-.026.004-.0482.041-.0705.063-2.3802 2.211-4.5936 4.535-5.8542 7.621-.8342 2.041-2.1874 3.709-3.9745 5.059-.9194.694-1.6647 1.609-2.4877 2.429.0407.081.0778.158.1186.239 2.3061.148 4.2266 1.196 6.0099 2.521 2.8252 2.1 5.654 4.196 8.431 6.359 1.6387 1.276 3.2701 2.583 4.742 4.037 2.1355 2.107 4.1153 4.369 6.1767 6.554.9825 1.037 1.7352 1.122 3.296.258zm-33.1899-2.612c-.0853-2.229.3596-2.691 2.6101-2.812.2632-.015.5153-.255.8935-.451-.3226-.276-.4671-.402-.6155-.527-1.913-1.584-3.9893-2.993-5.3648-5.137-.1038-.159-.4263-.255-.6451-.251-1.2902.025-2.4618.907-2.7362 2.018-.2595 1.056.3152 2.159 1.4015 2.857.7489.483 1.4385 1.051 2.1541 1.579-.0593.078-.115.151-.1743.229-.6488-.439-1.2642-.956-1.965-1.292-.4078-.195-1.0196-.254-1.4311-.096-.8119.314-1.0789 1.51-.7712 2.823.152.65 1.1531 1.576 1.7982 1.532 1.6202-.122 3.2293-.31 4.8458-.472zm49.6218-36.757c1.9094.535 3.6631 1.022 5.413 1.517 4.3786 1.24 8.8573 1.742 13.3991 1.79 1.0418.011 2.4915-1.067 2.9178-2.156-.5895 0-1.1678-.036-1.7425.008-3.4517.258-6.8553-.17-10.1958-.945-2.4247-.561-4.7938-1.384-7.1704-2.14-.5932-.189-1.0047-.152-1.3792.354-.3633.491-.7526.956-1.242 1.572zm-3.9745-5.167c-3.4999-.952-4.7345-3.878-6.0841-6.864-.1742.314-.4041.554-.3522.664.634 1.362 1.3088 2.706 1.9724 4.053-.0371.025-.0704.051-.1075.081-.7378-1.17-1.4756-2.344-2.2097-3.51-.6118.624-.5598 1.248-.178 1.993 1.3681 2.672 3.3072 4.838 5.7022 6.624.2855.211.6044.377 1.0752.665.0705-1.358.1224-2.48.1817-3.706zm26.572 5.809c-5.5094-.609-10.9781-1.21-16.3651-1.808-.0519-.07-.0408-.03-.0149-.022 5.1016 1.852 10.3849 2.384 15.7682 2.136.2336-.011.4598-.228.6118-.306zm-22.1304-2.867c-1.2642-.539-2.4618-1.052-3.689-1.572v2.627c1.7982 1.292 2.6472-.129 3.689-1.055zm-48.3353 39.21c.9158-.029 1.535-.535 1.4979-1.217-.0371-.746-.6192-1.159-1.7055-1.093-.8008.048-.912.735-.9306 1.325-.0222.712.3522 1.137 1.1382.985zm48.9211-40.055c-1.4459-.606-2.7547-1.152-4.0671-1.702-.2003.753-.2188.801 2.028 1.635.5858.222 1.3384.967 2.0391.067zm-3.4888 2.671c-.7192.048-1.3495.55-1.6758 1.263-.3707.808-.5487 1.719-.0704 2.446.5746-1.225 1.1604-2.465 1.7462-3.709zm1.1605 2.052c-.7489.152-1.5498 1.414-1.5461 2.34 1.2161-.395 1.6351-1.007 1.5461-2.34zm-1.0604-.446c-.126-.052-.2521-.104-.3818-.155-.3115.782-.6192 1.568-.9306 2.351.1594.059.3188.118.4745.177.2818-.794.5599-1.583.8379-2.373z" fill="#000"/><path d="M81.4297 207.016c.8491-1.535 1.6165-3.067 2.5323-4.502.4189-.657.519-1.229.5561-1.997.1224-2.528-.6266-5.111.4264-7.587.0704-.163.0408-.366.0408-.38-1.8575-.111-3.6668-.17-5.4613-.351-.7489-.074-1.546-.281-2.1985-.65-2.84-1.605-5.8802-1.76-9.0242-1.468-2.6175.243-5.2499.335-7.8637.623-1.0974.122-2.2134.443-3.2219.893-2.0428.912-4.2451.801-6.3658 1.196-2.3098.428-4.6011 1-6.9294 1.284-2.6954.329-5.1906 1.248-7.7117 2.133-.33.115-.7082.085-1.0641.122-.0482-.107-.1001-.21-.1483-.317.33-.229.6303-.554.9973-.668 2.7177-.849 5.4464-1.661 8.1715-2.476.3225-.096.6599-.148 1.2049-.27-4.7234-1.354-9.1873-2.705-13.6994-3.886-1.4564-.382-3.026-.419-4.5533-.455l-.1071-.002c-2.0762-.052-4.1635-.023-6.2361.121-.9639.067-1.9205.443-2.8548.757-1.153.387-2.6991.1-3.422-.834 1.3124-.299 2.7435.863 3.8558-.48-1.1605-1.351-2.1281-2.827-.5598-4.631-1.5646 1.376-5.072 5.406-5.3018 7.797-.2336 2.425-.1557 4.879-.2076 7.322-.0038.218.1112.443.0964.661-.1372 1.886-.0742 3.757.3707 5.606.063.269.0074.564.0074.848l68.6712 1.591z" fill="#fff"/><path d="M109.003 164.882c-1.42 1.063-2.607 2.004-3.845 2.868-6.3028 4.399-11.245 10.056-15.2825 16.518-.8527 1.362-1.5127 2.916-1.9205 4.469-.8787 3.362-1.5497 6.78-2.2727 10.179-.1001.479-.0148.996-.0148 1.671 1.1456-.86 2.1726-1.627 3.1959-2.395.0815.048.1631.1.2447.148-.3189.516-.5673 1.096-.9677 1.535-1.0048 1.107-2.1652 2.078-3.0884 3.24-.6785.86-1.1605 1.901-1.5831 2.923-.2178.527-.4689.904-.8978 1.044l46.2409-.062c.441-.82.786-1.639 1.283-2.355 1.85-2.657 3.485-5.417 4.82-8.377 1.312-2.908 2.914-5.691 4.249-8.591 2.695-5.861 5.42-11.714 7.886-17.67 1.116-2.702 1.724-5.728 1.112-8.636-.879-4.196-2.451-8.189-4.961-11.739-.237-.339-.641-.587-1.012-.801l-.133-.076c-1.142-.654-2.286-1.308-3.463-1.894-1.624-.809-3.367-1.004-5.18-1.167-2.691-.243-5.239.277-7.782.897-1.42.347-2.818.875-4.149 1.491-4.334 2.008-8.616 4.163-12.275 7.263-1.469 1.243-2.51 3-3.697 4.557-.478.632-.897 1.325-1.223 2.045-.349.768-.575 1.594-.823 2.406-.26.849-.486 1.705-.753 2.646 1.832-1.089 3.53-2.661 6.292-2.137z" fill="#fff"/><path d="M119.721 172.23c-1.476-4.103-.419-7.229 2.859-9.617-1.116-2.694-2.685-5.141-3.637-7.849.126-.085.252-.166.378-.251.307.28.671.516.908.845 1.357 1.856 2.699 3.723 4.015 5.609.341.487.634.72 1.309.624 4.571-.635 8.446 1.786 9.988 6.13.093.258.43.561.69.601 2.465.395 4.942.735 7.415 1.093.126.018.282-.004.374.062.208.152.386.347.575.528-.2.118-.393.314-.604.336-1.876.221-3.76.41-5.639.609-.127.015-.256.029-.382.029-1.45.03-2.529.369-3.007 2.049-.386 1.369-1.276 1.948-3.6 3.535.982.458 1.883.897 2.799 1.292.816.35 1.09.941.905 1.771-.301 1.336-.616 2.668-.92 4.004-.426 1.871-1.472 2.502-3.333 1.845-2.988-1.055-5.951-2.177-8.913-3.306-3.17-1.207-6.321-2.454-9.48-3.683-1.728-.672-2.15-1.314-1.687-3.052.441-1.657 1.034-3.277 1.654-4.875.111-.284.73-.617 1.019-.547 1.016.248 1.991.657 2.981 1.012 1.046.376 2.084.756 3.333 1.206zm2.807-12.337c-.456-.553-.916-1.107-1.372-1.657.185.727.463 1.399.782 2.052 1.339 2.757 2.67 5.517 4.045 8.256.389.775.208 1.129-.589 1.395-.764.254-1.483.649-2.221.981.029.093.059.181.089.273 1.802-.251 3.604-.505 5.546-.775-.311-.52-.545-.893-.763-1.273-.612-1.074-1.217-2.151-1.825-3.225.679.996 1.457 1.941 2.006 3.004.542 1.041 1.153 1.708 2.41 1.465.033-.007.078.041.163.085-2.695.328-5.309.649-7.923.97 1.257.347 2.484.535 3.719.672.593.066 1.212.137 1.794.044 2.336-.369 4.657-.848 6.996-1.195 2.229-.329 4.472-.539 6.889-.823-.879-.288-1.546-.606-2.243-.716-3.322-.521-6.648-1.008-9.981-1.443-.778-.104-1.268-.436-1.72-1.034-1.809-2.398-3.648-4.775-5.48-7.155-.152-.2-.326-.384-.489-.576-.03.026-.059.048-.085.074.081.195.166.398.252.601zm-9.544 10.869c-.474 1.487-.956 2.967-1.416 4.45-.563 1.816-.422 2.137 1.268 2.975.486.24.968.502 1.476.694 3.533 1.336 7.07 2.66 10.611 3.974 2.098.779 4.204 1.55 6.321 2.285 1.049.365 1.531.096 1.787-.897.256-.989.497-1.982.734-2.975.631-2.635.619-2.613-1.872-3.709-6.103-2.683-12.328-5.033-18.909-6.797zm10.074-7.145c-3.341 1.639-3.908 6.038-2.069 8.713.13.192.389.332.616.421 2.532.989 5.071 1.967 7.615 2.937.233.089.5.166.741.144 1.817-.173 4.131-2.413 4.446-4.402-2.214.369-4.383.974-6.563 1.026-2.154.051-4.319-.454-6.48-.713-.023-.133-.045-.265-.067-.402 1.49-.812 2.981-1.624 4.482-2.443-.908-1.757-1.798-3.487-2.721-5.281zm2.706-.882c.853 1.181 1.743 2.299 2.496 3.502.626 1.008 1.379 1.506 2.606 1.513 1.19.004 2.38.244 3.615.388-.805-3.621-5.354-6.433-8.717-5.403z" fill="#000"/><path d="M93.546 110.309c-.4783.24-.9455.509-1.4386.716-1.6535.705-3.3145.531-5.0385.003.0964-.501.2595-.989.2706-1.479.0074-.469-.1446-.938-.2521-1.569-.0927.997-.0815 1.805-.278 2.558-.0816.313-.5858.642-.9529.73-2.9067.683-4.957-.764-6.6365-2.86-.8935-1.118-1.6202-2.376-2.3543-3.609-1.5127-2.546-3.4665-4.8234-4.4676-7.6835-.8527-2.4356-1.3532-4.8898-1.4756-7.4731-.2039-4.303-.6414-8.5913-1.7574-12.7799-.5561-2.0888-.304-4.185.0705-6.27.0259-.1403.0927-.3063.1928-.3986 1.0677-.9853 1.4756-2.2659 1.7091-3.6425.089-.5277.3263-1.0259.4561-1.5462.4226-1.6939.8008-3.3952 1.242-5.0818.2484-.9484.5302-1.9005.9009-2.8047.7416-1.8157 1.9428-3.3214 3.6705-4.2477 1.1382-.6089 2.4136-1.0813 3.6816-1.2953 1.6795-.2842 2.2913-1.5241 2.903-2.7531.3745-.7528.3893-1.6717.6711-2.4799.5153-1.491 1.394-2.7162 2.814-3.3915-.4968 1.9374-1.027 3.9044-1.5053 5.8825-.4115 1.7013.4931 2.7752 2.2728 2.8121 3.2292.0591 6.3844.5536 9.3245 1.9338.9713.4576 1.8018 1.2105 2.6993 1.8304-.048.0775-.1.155-.149.2325-.5409-.1217-1.0859-.2435-1.6272-.3653-.0111.048-.0185.0959-.0296.1402.304.0923.6043.1919.9083.2805 1.9395.5536 2.2175.7898 2.2095 2.7715-.003 1.3138.508 2.0703 1.661 2.6054.486.2252.868.7271 1.227 1.1588.631.7529 1.265 1.5131 1.795 2.3361.278.4318.385.9927.486 1.5094.155.7786.155 1.5942.367 2.3545.637 2.2991.856 4.6351.845 7.0155-.011 2.133.259 4.2809.074 6.3918-.104 1.1588-.79 2.3139-1.401 3.3656-1.461 2.5095-3.185 4.8751-4.516 7.4473-1.064 2.0556-1.672 4.34-2.5398 6.4989-.99 2.4503-2.0466 4.8753-3.0699 7.3103-.0853.203-.1483.417-.2187.628-.9195 1.063-1.8316 2.14-2.7436 3.218zm-6.6254-15.9207c.0111-.5166.0964-1.0481.0148-1.5463-.2484-1.4872-.241-1.5278 1.2495-1.6865 1.2309-.1292 2.2764-.6495 3.118-1.5463.8157-.8672 1.001-2.3729.4449-3.3029-.634-1.0702-1.1864-1.2289-2.8251-.8156-.1743.0443-.356.0627-.3189.0554-.4783-1.0112-.9454-1.9006-1.3236-2.8232-.1854-.4539-.3559-.989-.2966-1.454.2447-1.8305.5932-3.6462.8898-5.4692.0371-.2325.0037-.4761.0037-.716-.3151.1033-.4486.2177-.4671.3506-.3115 2.0482-.66 4.0964-.8713 6.1556-.0556.5351.2187 1.192.5376 1.6607.4746.6975.7118 1.395.6637 2.229-.0408.6791-.0075 1.3581-.0075 2.0372.2818-.1366.4153-.299.4894-.4835.3374-.8599 1.1827-1.3728 2.1282-1.1256.823.2141 1.1938.8156 1.2346 1.7087.0556 1.1625-.6933 1.7123-1.4868 2.2696-1.2939.9078-3.7816 1.1219-4.779.3838 1.1827-.8377 2.2802-1.8231 4.1006-1.4946-.7304-.7898-1.4052-.7049-1.9984-.4023-.7341.3728-1.3681.9485-2.1022 1.3286-.4078.2103-.9639.3616-1.3977.2694-1.3867-.2989-2.7399-.7676-4.1228-1.0776-.7156-.1587-1.0196-.5167-.6377-1.1662.2187-.3727.5413-.7381.9046-.9669 1.0122-.6421 1.4052-1.5426 1.5461-2.7014.1334-1.0997.4708-2.1773.76-3.2512.456-1.6903 1.0826-3.3473 1.3755-5.0633.2262-1.3249.0445-2.7162.0445-3.9894-.1668 1.6607-.1631 3.4358-.5635 5.1187-.5043 2.1293-1.4311 4.1591-1.9873 6.2774-.3856 1.4688-.9009 2.7604-2.1541 3.6793-.126.0923-.2706.2362-.2892.3728-.0926.631-.3633 1.3617-.1408 1.871.1668.3801.9899.6717 1.52.6717 2.625-.0148 3.4073.5535 2.8178 3.2771-.1594.7381-.3596 1.5905.4894 2.1441-.2595.1329-.5079.2952-.7823.3875-.9603.3211-1.9576.5536-2.8882.9448-.8787.369-1.6869.8893-2.5285 1.347 1.5683.4244 2.3135 1.6496 3.2033 2.7347.7934.967 1.7462 1.631 3.1254 1.55 1.2754-.074 2.562.092 3.8374.011 1.3532-.089 2.6249-.45 3.4851-1.672.7378-1.0479 1.5015-2.0665 2.9475-2.251.5375-.0664.5932-.4687.456-1.0186-.2447-.9816-1.0455-.5978-1.6387-.7602.1779-1.0112.3522-1.9854.5227-2.9634-.1075-.0222-.215-.0443-.3225-.0664-.2151 1.0185-.4264 2.0371-.6526 3.1036-1.7833-.5609-3.5184-1.4651-5.5353-.8008.0815-.5277.1445-.9263.2076-1.3249zm3.7186-20.2678c.052-.0369.115-.0627.1558-.107 2.18-2.3951 6.8812-2.8084 9.1094-.3691.1896.2067.5336.2694.8046.4023-1.9725-2.384-4.5344-2.8527-7.3966-2.3139 2.7102-1.2732 5.413-1.5094 8.1676-.2067 1.798.8525 1.924.7455 1.772-1.4983 1.328.9226 2.529 1.7604 3.726 2.5981-.326-.5351-.734-1.0629-1.23-1.4762-1.517-1.251-2.967-2.6719-5.028-2.9782-4.0634-.6052-7.8414.1108-11.1967 2.5723-.3708.2731-.6563.6679-.9825 1.0038.5635.2657 1.1048.6606 1.698.7639.4598.0812.9862-.1919 1.4793-.3174.2225-.059.4375-.1476.4709-.1587-.4968.6126-1.0678 1.3101-1.6387 2.0113-.356.7233-.9937 1.4393-1.0122 2.1737-.0445 1.7455 1.991 4.3473 3.7632 5.1001-.6859-.727-1.4126-1.3285-1.9205-2.0777-.6155-.9115-1.2309-1.9006-1.4905-2.9449-.1409-.5684.4449-1.3175.7045-1.9855.0222-.0664.0296-.1292.0444-.1919zm-10.9483 3.2771c-2.0466.8599-4.0264 1.1736-5.9136-.5757 1.2865.0701 2.4618.3248 3.5556.1365 1.0677-.1845 2.0577-.8229 3.3034-1.3543-.8045-.4687-1.4682-1.1515-2.1949-1.2253-2.0577-.2103-4.1228-.107-5.6874 1.8157.1038-1.4429.5821-2.0961 1.9317-2.6276 2.1541-.8451 4.1524-.6716 5.8468 1.133.0556-.1033.1112-.203.1705-.3063-.8305-.5462-1.661-1.0924-2.3728-1.5611.2706-.0922.6377-.2214 1.0084-.3505-.2298-.3912-.4486-.7898-.7007-1.1699-.0816-.1255-.241-.2067-.3819-.2879-1.5979-.9041-3.333-1.3507-5.1572-1.299-1.787.048-3.2774 1.1551-3.3887 2.5427-.0333.4318.3708 1.0813.7638 1.3249.4894.3026 1.0196.0443 1.2791-.6016.1112-.2731.419-.5314.7007-.6679 1.3866-.6643 2.6843.0701 3.8596.2472-.8305.3506-1.8575.6126-2.6583 1.1847-.5932.4244-.9714 1.2215-1.2754 1.9264-.0816.1919.4745.631.6896.9853 1.1567 1.9153 4.2822 2.3028 6.6217.7307zm20.6031-2.3988c-3.452-2.3582-8.2273-1.9891-9.1209.5167.9232.2362 1.8427.5572 2.7881.6938 1.2532.1808 2.5286.3174 3.7891.2805 1.0381-.0333 1.9094-.609 2.5437-1.491zM79.0754 61.7022c0 .0222-.0037.0406-.0037.0628 1.5905.0738 3.1811.155 4.7716.2214 1.0715.0443 1.9984-.2288 2.7696-1.0555.304-.3247.8082-.5129 1.2605-.6384 2.4062-.6717 4.8606-.7197 7.3373-.5167.9565.0775 1.9242.0111 2.8881.0111.0149-.1107.0297-.2177.0482-.3285-.2669-.1144-.5413-.3321-.8045-.3247-2.7473.1033-5.4946.1771-8.2308.417-.8787.0775-1.9427.417-2.5248 1.0186-.9788 1.0148-2.0614 1.1477-3.3071 1.1292-1.4015-.0147-2.8029.0037-4.2044.0037zm-2.2431 4.0041c-.0074.0849-.0111.1661-.0185.251.5339-.0258 1.0715-.0701 1.6054-.0738 1.4051-.0111 2.8474-.1956 4.208.0553 1.3385.251 2.5657.1329 3.7484-.3432 2.2245-.8931 4.5121-1.406 6.896-1.5389.2781-.0147.5561-.0886 1.0789-.1808-.3596-.1587-.4449-.2288-.5228-.2251-2.5174.0885-4.931.62-7.2927 1.502-.9603.3579-2.1059.7565-3.0402.5498-2.2616-.4982-4.4453-.0885-6.6625.0037zm.4635-10.6284c5.591-1.4909 11.2376-1.2953 16.9027-.6606-5.6726-.8082-11.3229-1.1366-16.9027.6606zm17.0251 37.384c-.1039.0997-.2114.1956-.3152.2953.8787.727 1.7611 1.4466 2.6324 2.181.2076.1734.519.3653.5524.5868.1854 1.1514.4634 2.3139-.0074 3.469-.1038.2583-.1298.5462-.1928.8229.4004-.7528.697-1.5426.723-2.3434.0259-.8303.063-1.8858-.3968-2.4578-.8008-1.0075-1.9761-1.7197-2.9956-2.5538zm.4893-26.977c2.473.2989 5.0868.6163 7.5748.9189-2.425-.8303-5.0017-1.4466-7.5748-.9189zm-1.572 41.0491c1.3793-1.709 2.5805-3.2 3.7854-4.687-1.5757 1.214-3.0809 2.48-3.7854 4.687zm8.4088-31.1403c-.148.1587-.267.2473-.341.369-.667 1.085-1.5573 1.6792-2.9143 1.6238-.7155-.0295-1.4422.2473-2.1615.3838 4.6198-.5314 5.4728-.9189 5.4168-2.3766z" fill="#fff"/><path d="M75.4718 147.043c-1.2643-.505-2.5249-.97-3.7409-1.531-.2744-.126-.5413-.602-.5487-.919-.0705-3.126.7785-6.104 1.6906-9.046.7526-2.435 1.7166-4.804 2.5582-7.211.063-.184-.0927-.442-.1446-.668-.1742.13-.4375.222-.5116.392-.7267 1.682-1.535 3.339-2.1059 5.074-.7934 2.417-1.5016 4.871-2.0614 7.351-.3152 1.388-.2595 2.857-.393 4.525-.6933-.436-1.3644-.764-1.9205-1.229-1.6833-1.403-2.8623-3.181-3.6408-5.215-.115-.299-.0668-.793.1149-1.052 1.2383-1.745 2.4989-3.472 3.8225-5.151.4004-.51.9862-.908 1.546-1.259 2.0095-1.258 3.4814-2.915 4.0301-5.266.4783-2.063 2.0466-3.314 3.5778-4.964-.482 2.451-2.0021 4.263-2.3839 6.44.152.059.3077.122.4597.181.5005-1.092.9973-2.185 1.5053-3.277.5858-1.259 1.1715-2.521 1.7833-3.768.1075-.221.3151-.443.5302-.557 1.4941-.779 2.9994-1.543 4.5195-2.274.2002-.096.5339-.022.7674.067 1.8872.716 3.8114 1.255 5.8913 1.055-2.0317-.513-4.0597-1.026-5.6799-1.432-.786-1.919-1.4349-3.506-2.0688-5.059.9194.443 1.8574.919 2.814 1.343 1.572.701 3.1885 1.118 4.9459.79 1.8167-.34 3.6927-.461 5.4649-.949 2.7176-.749 4.1486-3.077 5.7686-5.133 1.876-2.38 3.76-4.757 5.766-7.292.233 1.524.478 2.812.622 4.115.26 2.314.327 4.661.738 6.949.226 1.254-.345 1.97-1.06 2.653-1.717 1.642-3.485 3.237-5.291 4.787-1.335 1.144-2.788 2.151-4.1337 3.284-1.7908 1.506-3.5222 3.082-5.2907 4.613-1.6091 1.391-3.2923 2.709-4.842 4.163-1.3162 1.236-2.4989 2.616-3.7298 3.945-1.3088 1.417-2.6509 2.808-3.8893 4.285-.8824 1.051-1.5942 2.247-2.4247 3.343-.9751 1.295-2.0021 2.558-3.055 3.897z" fill="#fff"/><path d="M76.7178 147.386c.1742-.31.278-.568.4412-.779 2.0465-2.664 4.0115-5.402 6.1842-7.964 1.939-2.288 3.9856-4.517 6.2064-6.528 2.7732-2.513 5.7912-4.757 8.672-7.156 1.0566-.882 2.0054-1.889 3.0434-2.797 1.161-1.019 2.388-1.963 3.545-2.989 1.594-1.417 3.148-2.886 4.931-4.528.341 1.922.656 3.683.971 5.447.052.284.078.568.141.848.286 1.259.638 2.447.063 3.805-.345.808-.152 1.901-.018 2.838.174 1.222.185 2.392-.138 3.595-.407 1.539.379 3.262-.867 4.738-.356.421-.019 1.414-.011 2.144.007.786.037 1.572-.015 2.355-.011.188-.274.409-.475.524-4.219 2.395-7.752 5.65-11.3076 8.883-.304.276-.7378.583-1.116.583-6.0248.04-11.968-.672-17.8074-2.159-.8008-.207-1.5608-.546-2.4432-.86zM54.2757 191.21c-.7749.159-1.546.329-2.3209.48-3.6.697-7.0369.033-10.4813-1.056-3.6296-1.144-7.3298-2.077-11.0114-3.055-.6673-.177-1.394-.129-2.1392-.188.2113-.764.4041-1.455.6525-2.355.571.594.9158.956 1.2606 1.314.0815-.059.1631-.118.2447-.177-.5673-.738-1.1086-1.495-1.7055-2.207-.2781-.332-.6785-.557-.9973-.86-.8973-.853-1.7945-1.709-2.6621-2.591-.8712-.882-1.7796-1.745-2.547-2.716-.7638-.963-.6711-2.705.0407-3.705.4746-.664 1.1123-1.037 1.902-.664.7378.347 1.5053.73 2.0948 1.273 2.3765 2.185 4.7753 4.355 6.9887 6.698 1.2087 1.281 2.0651 2.886 3.0587 4.362.3634.543.6674 1.122 1.1197 1.89.0186-.384.0667-.525.0223-.624-1.1123-2.395-2.0911-4.846-4.2304-6.636-1.5126-1.269-2.8103-2.79-4.2191-4.184-.4746-.473-.99-.905-1.4942-1.347-.8379-.742-.9232-3.004.0445-3.407.7971-.332 1.9316-.321 2.7621-.026 2.9549 1.052 5.5206 2.809 7.949 4.772.9936.805 1.9984 1.605 3.055 2.332 3.5889 2.469 6.5513 5.614 9.5099 8.758 1.1123 1.181 2.18 2.395 3.2701 3.598-.0557.107-.1113.214-.1669.321zm-10.4145-4.702c.1112-.036.2188-.077.33-.114-.4264-1.269-.849-2.539-1.2754-3.808-.1261.044-.2521.088-.3782.132.4449 1.263.8861 2.528 1.3236 3.79z" fill="#fff"/><path d="M57.809 189.797c-1.5609.864-2.3135.782-3.2997-.266-2.0577-2.184-4.0413-4.447-6.1768-6.554-1.4719-1.454-3.1032-2.764-4.742-4.037-2.7769-2.163-5.6058-4.259-8.4309-6.359-1.7833-1.325-3.7039-2.373-6.01-2.52-.0407-.081-.0778-.159-.1186-.24.8231-.816 1.572-1.735 2.4878-2.428 1.7907-1.347 3.1403-3.016 3.9745-5.06 1.2605-3.082 3.4739-5.406 5.8542-7.621.0222-.022.0482-.059.0704-.062 1.4089-.13 2.8178-.266 4.2303-.351.1001-.007.3411.387.3226.572-.5265 4.642.3411 9.233.5487 13.846.1298 2.846.634 5.71 1.2865 8.488.5932 2.543 2.1727 4.573 4.3342 6.13.8972.646 1.7685 1.377 2.4766 2.214 1.1271 1.336 2.1059 2.787 3.1922 4.248zM93.5464 110.308c.912-1.077 1.8241-2.159 2.7361-3.236 1.3867-1.425 1.902-3.299 2.5953-5.071.8379-2.1365 1.4722-4.3582 2.3872-6.4617 1.005-2.2991 2.151-4.5503 3.389-6.735 1.061-1.8748 2.34-3.6277 3.511-5.4176.768 2.5612.979 5.174.634 7.8569-.352 2.7346-.571 5.4914-.864 8.2334-.026.2325-.144.4834-.293.668-2.209 2.76-4.437 5.51-6.655 8.27-1.5382 1.916-2.9174 4.06-5.5498 4.621-1.6795.354-3.4072.501-5.1127.745-2.2764.325-4.2562-.635-6.2732-1.436-.2521-.099-.456-.317-.6636-.583 1.8204.355 3.5185-.697 5.4279-.11 1.6721.516 3.4257.062 4.7308-1.344zM24.619 187.184c-1.6165.162-3.2255.35-4.8457.469-.6452.048-1.6425-.879-1.7982-1.532-.3077-1.314-.0445-2.509.7712-2.823.4115-.159 1.0233-.1 1.4311.096.7007.332 1.3125.852 1.965 1.291.0593-.077.1149-.151.1742-.228-.7155-.532-1.4088-1.1-2.154-1.58-1.0864-.697-1.661-1.801-1.4015-2.856.2744-1.107 1.4459-1.993 2.7362-2.019.2187-.004.545.092.6451.251 1.3755 2.144 3.4517 3.554 5.3648 5.137.1483.122.2929.251.6155.528-.3782.199-.6303.439-.8936.45-2.2504.126-2.6953.587-2.6101 2.816zM74.2412 150.427c.4894-.616.8787-1.081 1.242-1.572.3708-.505.786-.542 1.3792-.354 2.3766.756 4.7457 1.579 7.1704 2.14 3.3405.775 6.7441 1.203 10.1958.945.571-.044 1.153-.007 1.7425-.007-.4263 1.088-1.876 2.166-2.9178 2.155-4.538-.048-9.0167-.55-13.3991-1.79-1.7499-.494-3.5036-.982-5.413-1.517zM70.2661 145.261c-.0593 1.225-.1149 2.347-.1779 3.705-.4709-.288-.7897-.454-1.0752-.664-2.3951-1.787-4.3341-3.953-5.7022-6.625-.3819-.745-.4338-1.373.1779-1.993.7341 1.167 1.4719 2.34 2.2097 3.51.0371-.026.0705-.052.1076-.081-.6637-1.347-1.3385-2.69-1.9725-4.052-.0519-.111.178-.351.3523-.665 1.3458 2.986 2.5841 5.913 6.0803 6.865zM62.4247 174.931c-.6044-.262-1.2087-.524-1.8612-.808 2.7955-3.041 4.0746-6.842 5.6317-10.499.2114-.499.4375-.993.7082-1.458.089-.155.3374-.225.6859-.174-.7786 2.17-1.6091 4.322-2.3172 6.514-.7045 2.174-1.2866 4.388-1.9428 6.65-.1668-.048-.5524-.151-.9343-.258l.0297.033z" fill="#fff"/><path d="M61.2903 157.845c.215.026.5338-.03.6265.092 1.0011 1.292 2.3988 1.723 3.9189 2.107.5784.148.8453-.31 1.2828-.17.482.229.9603.458 1.4423.691.1446.365.2892.73.43 1.092-.1965.561-.3893 1.118-.5858 1.679-.1631.207-.3262.413-.4894.62-.0889-.029-.1816-.059-.2706-.088.0741-.432.1149-.875.2299-1.3.2447-.907.0927-1.169-.9455-1.45-.3448.653-.6933 1.318-1.0826 2.056-1.3347-1.561-2.5248-3.2-4.9532-2.938.0259-.417.0481-.749.0704-1.077.1112-.44.2187-.875.3263-1.314zM68.5648 160.562c-.482-.229-.9603-.458-1.4422-.691.1075-.184.1742-.413.3225-.549.9899-.912 1.1308-2.034 1.0752-3.318-.0297-.698.4338-1.421.7193-2.255.9676.472 1.813.886 2.903 1.417-.5858.893-1.0604 1.727-1.6462 2.473-.6303.801-1.4088 1.491-1.4163 2.627-.0037.1-.3373.2-.5153.296zM96.8383 151.069c-.152.081-.3782.295-.6118.306-5.387.251-10.6703-.281-15.7682-2.137-.0259-.007-.0371-.048.0149.022 5.387.594 10.8557 1.2 16.3651 1.809zM68.4086 163.333c.1965-.561.3893-1.118.5858-1.679.1001-.122.2002-.247.3262-.402 1.1642 1.063 2.4137 1.971 4.171 1.985-.0222.388-.0445.761-.0667 1.133-.1149.384-.2262.764-.3411 1.148-.1631.022-.4078.122-.4709.052-1.1382-1.233-2.547-1.713-4.3155-1.476.0482-.314.0815-.539.1112-.761zM62.3987 174.902c.0148.029.0186.07.0408.085 1.179.775 1.2902 1.225.4783 2.443-.1335.199-.5673.225-.8713.277-.1409.025-.3077-.063-.4597-.119-.6229-.232-1.2458-.468-1.9799-.745.2373-.805.4709-1.579.7193-2.417.7267.177 1.4163.343 2.1059.509-.0074-.004-.0334-.033-.0334-.033z" fill="#fff"/><path d="M61.2904 157.845c-.1075.436-.2151.875-.3263 1.31-.1223.281-.2447.565-.4004.923-.7267-.266-1.4311-.528-2.269-.834.3856-.978.7489-1.904 1.1122-2.823 1.5906.255 1.928.509 1.8835 1.424zM74.7081 148.202c-1.0419.93-1.8909 2.347-3.6891 1.055v-2.627c1.2272.52 2.4248 1.03 3.6891 1.572zM73.0874 165.521c.1149-.384.2262-.764.3411-1.148.1001-.358.2039-.719.3522-1.247.6785.229 1.3459.458 2.1504.731-.3596.959-.697 1.86-1.0789 2.882-.6192-.513-1.6573-.118-1.7648-1.218zM26.3725 187.412c-.786.155-1.1567-.273-1.1382-.985.0185-.591.1298-1.277.9306-1.325 1.0863-.063 1.6684.347 1.7055 1.092.0333.679-.5821 1.185-1.4979 1.218zm1.2087-1.494c-.4449-.303-.7897-.672-.9306-.606-.2818.133-.5005.484-.6303.79-.0297.074.4227.495.6229.472.2669-.025.5005-.328.938-.656zM75.2936 147.357c-.7007.896-1.4534.151-2.0429-.067-2.243-.834-2.2282-.878-2.028-1.635 1.3125.55 2.6249 1.1 4.0709 1.702zM71.8051 150.029c-.5858 1.244-1.1716 2.484-1.7462 3.709-.4783-.727-.3004-1.635.0704-2.447.3263-.712.9565-1.214 1.6758-1.262zM72.9655 152.08c.089 1.332-.3262 1.945-1.546 2.34-.0074-.926.7934-2.185 1.546-2.34zM71.905 151.634c-.2781.79-.5562 1.58-.8342 2.37-.1595-.06-.3189-.119-.4746-.178.3114-.782.6191-1.568.9306-2.35.1223.055.2521.107.3782.158zM112.985 170.762c6.577 1.764 12.802 4.115 18.904 6.797 2.488 1.097 2.499 1.078 1.873 3.709-.238.993-.479 1.986-.734 2.975-.256.993-.738 1.262-1.787.897-2.118-.738-4.22-1.506-6.322-2.285-3.541-1.314-7.078-2.642-10.611-3.974-.508-.192-.99-.454-1.475-.694-1.695-.838-1.836-1.155-1.268-2.975.467-1.483.945-2.963 1.42-4.45zm3.629 1.494c-.827-.258-1.575-.553-2.354-.697-.256-.048-.793.236-.849.454-.345 1.354-.608 2.734-.853 4.111-.133.764.234 1.303.964 1.561 1.027.362 2.047.757 3.096 1.026 1.094.284 1.883-.074 2.369-.967.211-.391.36-.819.508-1.236.942-2.661.719-3.089-1.98-3.82-.059-.015-.126.004-.245.011-.715 1.436-.663 3.192-1.542 4.591l-.378-.111c.408-1.598.819-3.196 1.264-4.923zm6.689 4.266c.396.159.804.322 1.279.506-.163.454-.297.823-.438 1.214-.789-.291-1.479-.542-2.165-.804-1.134-.439-1.579-.214-1.857.959-.06.247-.112.498-.182.746-.163.572-.048.974.571 1.203 1.349.494 2.688 1.022 4.03 1.542.612.237.971.019 1.175-.583.349-1.026.771-2.029 1.053-3.074.093-.347-.022-1-.267-1.148-1.32-.8-2.695-1.524-4.093-2.184-.311-.148-.849-.041-1.183.136-.515.277-.648.801-.278 1.307.486.657 1.706.738 2.355.18zm4.504 1.229c.401 1.672 2.154.849 2.903 1.927-1.208.572-2.395 1.107-3.552 1.701-.311.159-.526.498-.786.753.264.196.497.458.794.572 1.398.546 2.807 1.07 4.227 1.557.27.093.604-.007.912-.018-.201-.251-.353-.58-.608-.735-.408-.247-.89-.38-1.48-.616 1.024-.705 1.898-1.284 2.748-1.9.463-.34.76-.927.189-1.263-1.595-.922-3.233-1.804-5.347-1.978zM123.058 163.616c.923 1.794 1.813 3.525 2.718 5.285-1.502.819-2.992 1.631-4.483 2.443.023.133.045.266.067.402 2.162.262 4.327.764 6.481.712 2.18-.051 4.349-.656 6.562-1.025-.318 1.985-2.628 4.229-4.445 4.402-.241.022-.508-.055-.741-.144-2.54-.97-5.08-1.948-7.616-2.937-.226-.089-.482-.229-.615-.421-1.835-2.679-1.268-7.078 2.072-8.717z" fill="#fff"/><path d="M122.528 159.893c-.085-.203-.171-.406-.252-.605.03-.026.059-.048.085-.074.163.192.334.376.49.576 1.831 2.38 3.674 4.757 5.479 7.155.449.598.942.934 1.721 1.034 3.333.435 6.658.922 9.98 1.443.701.11 1.368.428 2.243.716-2.417.284-4.66.494-6.888.822-2.34.344-4.661.827-6.996 1.196-.582.092-1.202.022-1.795-.044-1.234-.14-2.462-.329-3.719-.672 2.614-.321 5.228-.638 7.924-.97-.086-.048-.13-.093-.164-.085-1.256.243-1.872-.428-2.41-1.465-.552-1.063-1.327-2.008-2.005-3.004-1.235-2.012-2.466-4.016-3.693-6.023zm16.232 10.056c-.015-.088-.026-.177-.041-.269-1.353.118-2.703.232-4.056.351.004.062.011.121.015.184 1.36-.089 2.721-.177 4.082-.266z" fill="#fff"/><path d="M125.765 162.734c3.359-1.029 7.912 1.783 8.712 5.4-1.231-.141-2.421-.384-3.614-.388-1.224-.004-1.98-.506-2.607-1.513-.745-1.199-1.639-2.318-2.491-3.499zM122.528 159.893c1.231 2.007 2.462 4.011 3.689 6.019.608 1.078 1.212 2.151 1.824 3.225.219.381.452.753.764 1.274-1.943.273-3.745.524-5.547.775-.029-.093-.059-.181-.089-.273.738-.333 1.457-.724 2.221-.982.797-.266.979-.62.59-1.395-1.376-2.738-2.707-5.499-4.045-8.256-.319-.653-.597-1.324-.783-2.051.46.557.916 1.11 1.376 1.664z" fill="#fff"/><path d="M90.5544 74.0392c.571-.6975 1.1382-1.3987 1.6387-2.0113-.0333.0111-.2484.0997-.4708.1587-.4931.1292-1.0196.3986-1.4793.3174-.5932-.1034-1.1345-.4945-1.6981-.7639.3263-.3359.6081-.7307.9825-1.0038 3.3554-2.4615 7.1333-3.1775 11.1966-2.5723 2.065.3063 3.511 1.7272 5.028 2.9782.5.4133.904.9411 1.231 1.4762-1.202-.8377-2.403-1.6718-3.727-2.5981.152 2.2401.026 2.3471-1.772 1.4983-2.7544-1.3027-5.4535-1.0665-8.1675.2067 2.8623-.5351 5.4205-.0701 7.3965 2.3139-.271-.1292-.615-.1956-.8044-.4023-2.2283-2.4393-6.9294-2.0223-9.1095.3691-.0408.0443-.1038.0738-.1557.107-.0334-.0184-.0593-.0443-.089-.0738zM79.6908 77.3961c-2.3432 1.5722-5.4649 1.1847-6.618-.7307-.215-.3542-.7712-.7934-.6896-.9853.304-.7049.6822-1.502 1.2754-1.9264.8008-.572 1.8278-.834 2.6583-1.1846-1.1753-.1809-2.4729-.9116-3.8595-.2473-.2818.1329-.5858.3912-.7008.668-.2632.6458-.7897.9041-1.2791.6015-.393-.2435-.8008-.8894-.7637-1.3248.1112-1.3876 1.6016-2.4948 3.3887-2.5427 1.8241-.0517 3.5592.3948 5.1572 1.299.1372.0775.2966.1624.3819.2878.2521.3765.4671.7787.7007 1.1699-.3708.1292-.7378.2583-1.0085.3506.7119.4687 1.5424 1.0149 2.3729 1.561-.0557.1034-.1113.203-.1706.3063-1.6943-1.8046-3.6927-1.978-5.8468-1.1329-1.3532.5314-1.8278 1.1846-1.9316 2.6276 1.5646-1.9191 3.626-2.0224 5.6874-1.8157.7266.0738 1.3903.7565 2.1948 1.2252-1.2457.5314-2.2356 1.1699-3.3034 1.3544-1.0937.1882-2.2653-.0664-3.5555-.1366 1.8834 1.7493 3.8632 1.4356 5.9098.5757zm-2.8474-.9447c1.2272.2288 2.0873-.2805 2.2542-1.395-.3782-.1033-.7675-.2103-.9788-.2694-.4783.3949-.7934.8451-1.1864.9226-.3374.0664-.7601-.2915-1.2903-.524.2003.3653.3449.631.4932.8968-.2447-.2178-.4894-.4355-.8083-.7234-.4597.2547-.9603.5278-1.4608.8009.812.369 1.572.5314 2.3432.6163.1965.0258.4227-.2067.634-.3248zM83.4834 95.1699c-.849-.5573-.6525-1.4061-.4931-2.1442.5933-2.7235-.1927-3.2918-2.8177-3.2771-.5302.0037-1.3532-.2878-1.5201-.6716-.2224-.5093.0482-1.24.1409-1.8711.0185-.1365.1631-.2804.2892-.3727 1.2568-.9189 1.7722-2.2106 2.1541-3.6794.5561-2.1219 1.483-4.148 1.9872-6.2774.3967-1.6828.393-3.4579.5636-5.1186 0 1.2732.1816 2.6645-.0445 3.9894-.2929 1.716-.9195 3.373-1.3755 5.0632-.2892 1.0776-.6266 2.1552-.7601 3.2513-.1409 1.1588-.5339 2.0593-1.546 2.7014-.3634.2288-.6859.5941-.9047.9669-.3818.6495-.0778 1.0075.6377 1.1662 1.3867.3063 2.7362.7786 4.1228 1.0775.4301.0923.9862-.0553 1.3978-.2693.7341-.3802 1.3681-.9522 2.1022-1.3286.5932-.3026 1.2679-.3875 1.9983.4023-1.8204-.3285-2.9141.6569-4.1005 1.4946.9973.7381 3.4814.524 4.779-.3838.7934-.5573 1.5423-1.1071 1.4867-2.2696-.0408-.8931-.4115-1.491-1.2346-1.7087-.9454-.2473-1.7907.2657-2.1281 1.1256-.0742.1845-.2076.3469-.4894.4834 0-.679-.0334-1.3617.0074-2.0371.0482-.834-.1854-1.5315-.6636-2.229-.3189-.4687-.5933-1.1256-.5376-1.6607.2113-2.0593.5598-4.1038.8712-6.1556.0186-.1329.152-.251.4672-.3506 0 .2399.0333.4834-.0037.7159-.2966 1.8231-.6414 3.6388-.8898 5.4692-.0631.465.1075 1.0001.2966 1.4541.3819.9263.8453 1.8156 1.3236 2.8231-.0371.0074.1446-.011.3188-.0553 1.6388-.4134 2.1912-.2547 2.8252.8156.5524.9336.367 2.4356-.4449 3.3029-.8417.8931-1.8872 1.4134-3.1181 1.5463-1.4867.1587-1.4978.1993-1.2494 1.6865.0852.5019-.0037 1.0296-.0149 1.5463l.0297.0332c-.1965-1.0149-.3893-2.0334-.5932-3.0815-.6785-.203-1.4052-.417-2.0614-.6126-.8602 1.4097-1.3384 2.8527-.8379 4.458l.0296-.0184z" fill="#000"/><path d="M86.9211 94.3869c-.0631.3986-.1261.7972-.2077 1.3212 2.0207-.6643 3.7521.2399 5.5354.8008.2225-1.0665.4375-2.0851.6525-3.1036.1076.0221.2151.0443.3226.0664-.1743.978-.3448 1.9522-.5228 2.9634.5933.1624 1.3978-.2214 1.6388.7602.1372.5536.0815.9522-.4561 1.0186-1.4459.1845-2.2134 1.2031-2.9474 2.2511-.8602 1.222-2.1319 1.583-3.4851 1.672-1.2717.081-2.562-.085-3.8374-.011-1.3792.081-2.332-.583-3.1254-1.55-.8898-1.0815-1.6313-2.3104-3.2033-2.7348.8416-.454 1.6498-.978 2.5285-1.347.9306-.3912 1.9279-.62 2.8882-.9448.2743-.0923.5227-.2583.7823-.3875l-.026.0148c1.1419 1.3027 2.3877 1.1477 3.207-.4023.0705-.1328.1891-.2399.2855-.3616l-.0296-.0259zm-7.3484 4.2588c.4783.6015.9862 1.2363 1.4942 1.8713.6933.86 1.5275 1.232 2.6879 1.092.8676-.103 1.7797.044 2.6546.177 1.2569.188 2.51.159 3.4481-.719.7452-.698 1.2457-1.6574 1.876-2.5283-1.3125-.3396-2.5471-1.0149-3.8707-.3359v1.3655c-.0593.0074-.1149.0184-.1743.0258-.0778-.4096-.1557-.8229-.2447-1.2769-.5895.1255-1.1678.2473-1.7759.3728v1.561c-.0593.004-.1149.004-.1742.007-.0593-.5421-.1187-1.0846-.1854-1.6677-.7081-.1033-1.3607-.1956-2.0911-.2989v2.1556c-.0815.003-.1631.007-.2447.014-.0407-.4868-.126-.9702-.1149-1.4574.0222-.989-.2484-1.192-1.1679-.893-.6525.214-1.3347.3395-2.117.5351zm14.5002-1.1588c-.2929-.1513-.5672-.3654-.8787-.4355-.9862-.2288-2.0317-.2842-2.966-.6311-1.1345-.4207-2.1726-.5019-3.3553-.1955-.9603.2472-2.0132.1771-3.0254.1845-.6154.0037-1.2791-.2916-1.8389-.1403-1.3607.3617-2.6732.9042-4.0042 1.3729 1.4015.2841 2.7547.7934 4.0487-.0775.1483-.0997.4819.048.7266.1033 1.6833.3838 3.3183.7898 5.072.0997 1.0158-.4023 2.1503-.4023 3.2626.1144.9084.4133 1.9131.3063 2.9586-.3949zM100.294 74.9977c-.6343.882-1.5019 1.4577-2.5474 1.491-1.2605.0369-2.5359-.0997-3.7891-.2805-.9454-.1366-1.8612-.4576-2.7881-.6938.8973-2.5058 5.6726-2.8749 9.1246-.5167zm-3.5262.6163c-1.2457.3359-1.7796.0443-2.7028-1.513-.6117.3173-1.2272.6384-1.9168.9964 3.474 1.6016 5.9432 1.5426 7.3595-.1181-.7304-.7713-1.0566.3838-1.635.3358.1854-.251.3707-.5019.608-.8267-.6636-.2251-1.2828-.4317-1.902-.6384.0705.0923.1372.1845.2077.2805-.3671.2325-.7267.631-1.1012.6458-.3707.0111-.7563-.3654-1.1604-.5831.3411 1.1256 1.2791 1.2954 2.243 1.4208zM79.0755 61.7022c1.4014 0 2.8029-.0185 4.2043.0037 1.2458.0221 2.3284-.1144 3.3072-1.1293.5821-.6015 1.6424-.9411 2.5248-1.0186 2.7362-.2435 5.4835-.3136 8.2308-.417.2632-.011.5376.2104.8045.3248-.0148.1107-.0296.2177-.0482.3284-.9639 0-1.9316.0665-2.8882-.011-2.4766-.203-4.931-.1587-7.3372.5166-.4486.1255-.9566.3137-1.2606.6385-.7711.8266-1.7017 1.0997-2.7695 1.0554-1.5905-.0664-3.1811-.1476-4.7716-.2214 0-.0295.0037-.0517.0037-.0701zM76.8325 65.7061c2.2171-.0923 4.4009-.5019 6.6625-.0037.9306.2067 2.0799-.1919 3.0402-.5499 2.3617-.882 4.7753-1.4171 7.2927-1.502.0816-.0037.1631.0665.5228.2251-.5228.0886-.8009.1624-1.0789.1809-2.384.1328-4.6715.6458-6.8961 1.5389-1.1827.476-2.4099.5941-3.7483.3432-1.3607-.2546-2.8029-.0664-4.2081-.0554-.5376.0037-1.0714.048-1.6053.0738.0074-.0848.0148-.166.0185-.2509zM77.2959 55.077c5.5799-1.7973 11.2339-1.4688 16.9027-.6606-5.6651-.6348-11.3154-.8303-16.9027.6606zM90.6395 74.1203c-.0149.0627-.0223.1254-.0445.1845-.2559.6679-.8454 1.4171-.7045 1.9854.2596 1.0444.875 2.0335 1.4905 2.945.5079.7491 1.2346 1.3507 1.9205 2.0777-1.7722-.7529-3.8077-3.3546-3.7632-5.1002.0186-.7307.6563-1.4503 1.0122-2.1736.0333.0295.0593.0553.089.0812zM94.3205 92.4609c1.0196.8341 2.1912 1.5463 2.9957 2.5501.456.572.419 1.6275.3967 2.4578-.0259.8009-.3188 1.5943-.723 2.3435.0631-.2731.089-.5647.1928-.823.4709-1.1588.1928-2.3176.0075-3.469-.0371-.2214-.3448-.4133-.5525-.5868-.8712-.7344-1.7536-1.454-2.6323-2.181.1075-.096.2113-.1919.3151-.2916zM94.8105 65.4841c2.5731-.5278 5.1498.0885 7.5745.9189-2.4877-.2989-5.1015-.6163-7.5745-.9189zM93.2383 106.533c.7081-2.207 2.2134-3.473 3.7854-4.687-1.205 1.487-2.4099 2.978-3.7854 4.687zM101.647 75.3926c.056 1.4577-.797 1.8452-5.4165 2.3766.7229-.1365 1.4496-.4133 2.1615-.3838 1.3569.0554 2.247-.5388 2.914-1.6238.074-.1218.193-.214.341-.369zM43.8611 186.509c-.4412-1.262-.8823-2.528-1.3198-3.79.126-.044.2521-.089.3781-.133.4264 1.269.8491 2.539 1.2754 3.808-.1112.037-.2224.078-.3337.115zM27.5815 185.918c-.4375.325-.6711.631-.9343.657-.2002.022-.6525-.402-.6229-.473.1298-.306.3485-.656.6303-.789.1372-.063.482.306.9269.605zM116.614 172.256c-.441 1.727-.852 3.325-1.264 4.926l.378.111c.879-1.399.827-3.155 1.543-4.591.118-.007.189-.026.244-.011 2.696.731 2.922 1.159 1.98 3.82-.148.42-.297.848-.508 1.236-.486.889-1.275 1.251-2.369.967-1.049-.273-2.072-.664-3.096-1.026-.73-.258-1.097-.797-.964-1.561.245-1.38.508-2.757.853-4.111.056-.222.593-.506.849-.454.775.144 1.528.435 2.354.694zM123.302 176.522c-.648.558-1.868.477-2.35-.18-.371-.506-.237-1.03.278-1.307.334-.177.871-.284 1.183-.136 1.397.66 2.769 1.384 4.093 2.184.245.148.359.801.267 1.148-.282 1.045-.705 2.048-1.053 3.074-.204.602-.564.82-1.175.583-1.343-.52-2.681-1.048-4.031-1.542-.622-.229-.734-.635-.571-1.203.071-.244.123-.495.182-.746.278-1.173.723-1.398 1.858-.959.682.265 1.375.513 2.165.804.141-.387.274-.756.437-1.214-.478-.188-.882-.347-1.283-.506zm.342 3.953c.07-.443.307-1.03.155-1.155-.393-.325-.953-.45-1.449-.653-.531 1.354-.467 1.439 1.294 1.808zM127.807 177.751c2.113.173 3.752 1.055 5.343 1.985.574.336.274.923-.189 1.263-.846.616-1.724 1.195-2.748 1.9.59.236 1.068.369 1.48.616.256.155.411.484.608.735-.304.011-.642.111-.912.018-1.42-.487-2.829-1.011-4.227-1.557-.293-.114-.53-.377-.793-.572.259-.255.478-.594.786-.753 1.156-.594 2.343-1.129 3.551-1.701-.745-1.085-2.498-.262-2.899-1.934zM138.76 169.949c-1.361.089-2.722.177-4.079.266-.003-.063-.011-.122-.014-.185 1.353-.118 2.702-.232 4.056-.35.011.092.022.181.037.269z" fill="#000"/><path d="M76.1318 76.0834c-.1446-.2657-.2892-.5314-.4931-.8967.5302.2325.9528.5904 1.2902.524.393-.0775.7081-.5277 1.1864-.9226.2113.059.6006.1661.9788.2694-.1668 1.1182-1.027 1.6238-2.2542 1.395-.2336-.1218-.4708-.2436-.7081-.3691z" fill="#fff"/><path d="M76.132 76.0829c.2373.1218.4746.2473.7119.3691-.2114.1144-.4375.3469-.634.3284-.7712-.0849-1.535-.2472-2.3432-.6163.5005-.2731.9973-.5499 1.4608-.8008.3151.2841.5598.5019.8045.7196zM86.9502 94.4217c-.0964.1181-.215.2288-.2855.3616-.8193 1.55-2.0613 1.7087-3.207.4023-.5005-1.6054-.0222-3.0483.8379-4.4581.6526.1956 1.3792.4097 2.0614.6127.2002 1.048.3967 2.0666.5932 3.0815zM79.5723 98.6473c.7823-.1956 1.4644-.321 2.117-.5351.9194-.2989 1.1901-.0959 1.1678.8931-.0111.4834.0742.9706.115 1.4577.0815-.004.1631-.007.2447-.015v-2.155c.7267.1034 1.3829.1993 2.091.299.0631.5831.1224 1.1256.1854 1.668.0593-.004.115-.004.1743-.007v-1.5614c.6117-.1291 1.1901-.2509 1.7759-.3727.0853.4539.1631.8672.2447 1.2769.0593-.0074.1149-.0185.1742-.0259v-1.3654c1.3273-.6791 2.5582-.0037 3.8707.3358-.6303.8709-1.1271 1.8307-1.876 2.5277-.938.879-2.1912.908-3.448.72-.8787-.133-1.7908-.281-2.6546-.177-1.1605.14-1.9947-.233-2.688-1.093-.5079-.6344-1.0122-1.2728-1.4941-1.8707z" fill="#fff"/><path d="M94.0725 97.4875c-1.0455.7012-2.0503.8082-2.966.3838-1.1123-.5129-2.2468-.5166-3.2627-.1144-1.7499.6938-3.3887.2879-5.0719-.0996-.241-.0554-.5747-.203-.7267-.1033-1.2939.8746-2.6509.3616-4.0486.0775 1.331-.4687 2.6435-1.0112 4.0041-1.3729.5599-.1476 1.2235.1439 1.839.1403 1.0121-.0074 2.0651.0627 3.0253-.1846 1.1865-.3026 2.2246-.2251 3.3554.1956.938.3506 1.9798.4023 2.966.6311.3189.0812.5932.2989.8861.4465zM97.8768 75.312c.5784.048.9084-1.1071 1.635-.3358-1.42 1.6607-3.8855 1.7234-7.3595.1218.6896-.358 1.3051-.6754 1.9168-.9964.9232 1.5536 1.4571 1.8452 2.7028 1.513.3671-.1033.7341-.2029 1.1049-.3026z" fill="#fff"/><path d="M97.8762 75.3125c-.367.0997-.7378.1993-1.1048.3027-.964-.1255-1.902-.2916-2.2431-1.4282.4004.2177.786.5978 1.1605.5831.3744-.0111.7341-.4134 1.1011-.6459-.0704-.0922-.1372-.1845-.2076-.2804.6192.2066 1.2383.417 1.902.6384-.2373.3284-.4227.5794-.6081.8303zM123.644 180.474c-1.761-.369-1.824-.45-1.294-1.808.497.203 1.057.328 1.45.653.152.122-.085.709-.156 1.155z" fill="#fff"/></g></g><defs><filter id="filter0_d_1121_44130" x=".695809" y="0" width="177.608" height="217.608" filterUnits="userSpaceOnUse" color-interpolation-filters="sRGB"><feFlood flood-opacity="0" result="BackgroundImageFix"/><feColorMatrix in="SourceAlpha" values="0 0 0 0 0 0 0 0 0 0 0 0 0 0 0 0 0 0 127 0" result="hardAlpha"/><feOffset dy="4.30419"/><feGaussianBlur stdDeviation="2.1521"/><feComposite in2="hardAlpha" operator="out"/><feColorMatrix values="0 0 0 0 0 0 0 0 0 0 0 0 0 0 0 0 0 0 0.25 0"/><feBlend in2="BackgroundImageFix" result="effect1_dropShadow_1121_44130"/><feBlend in="SourceGraphic" in2="effect1_dropShadow_1121_44130" result="shape"/></filter></defs></svg>